<?xml version="1.0" encoding="utf-8"?>
<!-- Generator: Adobe Illustrator 27.5.0, SVG Export Plug-In . SVG Version: 6.00 Build 0)  -->
<svg version="1.1" xmlns="http://www.w3.org/2000/svg" xmlns:xlink="http://www.w3.org/1999/xlink" x="0px" y="0px"
	 viewBox="0 0 3710 3710" style="enable-background:new 0 0 3710 3710;" xml:space="preserve">
<g id="Background">
	<g>
		<g>
			<rect style="fill:#FFFFFF;" width="3710" height="3710"/>
		</g>
	</g>
</g>
<g id="Illustration">
	<g>
		<path style="fill:#F4F7FA;" d="M3323.942,1592.639c-56.906-372.476-102.59-629.891-308.081-770.946
			c-346.613-237.925-733.711,148.318-1224.703-110.856c-241.746-127.607-250.807-275.557-455.545-295.196
			c-362.226-34.744-658.867,397.538-684.575,434.61c-156.2,225.245-208.376,499.899-145.054,761.747
			c41.126,170.074,68.919,346.093,61.29,520.855c-13.274,304.154-5.636,588.059,289.539,769.448
			c263.555,161.961,595.247,304.804,911.684,329.822c215.048,17.004,456.212-10.512,663.477-66.498
			C3488.251,2880.292,3402.184,2104.774,3323.942,1592.639z"/>
		<g>
			<defs>
				<rect id="SVGID_1_" x="452.733" y="359.226" width="1604.148" height="1713.924"/>
			</defs>
			<clipPath id="SVGID_00000014619401686780507920000001499143371892549311_">
				<use xlink:href="#SVGID_1_"  style="overflow:visible;"/>
			</clipPath>
			<g style="clip-path:url(#SVGID_00000014619401686780507920000001499143371892549311_);">
				<g>
					
						<linearGradient id="SVGID_00000045597302641159207220000002937337513660930713_" gradientUnits="userSpaceOnUse" x1="1288.0004" y1="1209.5302" x2="419.4807" y2="1720.4231" gradientTransform="matrix(-1 0 0 1 1856.257 0)">
						<stop  offset="0.0036" style="stop-color:#E38DDD"/>
						<stop  offset="1" style="stop-color:#9571F6"/>
					</linearGradient>
					<path style="fill:url(#SVGID_00000045597302641159207220000002937337513660930713_);" d="M1910.558,2187.532
						c18.228-8.709,50.204-43.726,54.776-56.291c30.426-83.617,97.562-236.471,63.017-323.963
						c-5.9-14.942-78.639-6.732-92.773-17.585c-47.647-6.022-64.549-5.156-107.034-33.133
						c-125.426-82.596,8.093-358.838-251.602-355.274c-190.223,2.611-316.403,109.861-385.756-164.005
						c-69.353-273.866-441.883-692.108-663.315-412.495c-127.081,160.472,112.405,334.102,84.049,529.474
						c-26.945,185.654,83.852,294.839,284.853,334.961c201.001,40.122,134.599,143.493,135.116,311.346
						c0.621,201.627,291.49,141.9,423.424,102.87C1561.554,2072.007,1853.292,2063.655,1910.558,2187.532z"/>
					<g>
						<defs>
							<path id="SVGID_00000036252545254870141610000007499304471736240022_" d="M2063.894,1770.072
								c0.442,138.865,6.613,280.152,7.813,419.992c-73.042,30.717-159.71,65.071-206.602-21.737
								c-65.194-120.69-304.108-97.021-410.096-65.052c-131.18,39.567-422.675,98.741-423.146-102.738
								c-0.392-167.729,65.874-271.234-135.107-311.324c-200.981-40.09-311.748-149.301-284.84-334.964
								c28.317-195.381-211.088-368.912-84.047-529.468c221.362-279.759,594.126,138.888,663.24,412.407
								c69.115,273.519,196.348,167.692,385.628,163.84c258.409-5.259,129.631,277.17,250.322,353.325
								C1921.673,1814.053,1970.136,1781.567,2063.894,1770.072z"/>
						</defs>
						<clipPath id="SVGID_00000180357035523049289860000015551464473722370476_">
							<use xlink:href="#SVGID_00000036252545254870141610000007499304471736240022_"  style="overflow:visible;"/>
						</clipPath>
						<g style="opacity:0.7;clip-path:url(#SVGID_00000180357035523049289860000015551464473722370476_);">
							<g>
								<path style="fill:#FCFDFE;" d="M1997.103,1976.864l0.347-2.53c-655.882-89.923-1187.332-559.219-1421.629-1255.366
									l-2.422,0.813c110.942,329.634,295.944,619.181,535.004,837.344c123.142,112.377,259.615,204.894,405.628,274.982
									C1665.982,1905.047,1828.511,1953.749,1997.103,1976.864z"/>
							</g>
							<g>
								<path style="fill:#FCFDFE;" d="M1022.017,2083.698c145.901-107.33,418.916-198.58,608.595-203.409l-0.065-2.554
									c-88.425,2.253-204.004,24.936-317.106,62.233c-117.295,38.681-221.329,88.995-292.939,141.676L1022.017,2083.698z"/>
							</g>
							<g>
								<path style="fill:#FCFDFE;" d="M1868.852,1957.815l1.035-2.335c-90.336-40.023-156.951-124.136-198-250.001
									c-30.066-92.193-45.97-204.243-47.27-333.036l-2.554,0.025c1.303,129.056,17.249,241.362,47.396,333.802
									C1710.741,1832.854,1777.827,1917.485,1868.852,1957.815z"/>
							</g>
							<g>
								<path style="fill:#FCFDFE;" d="M1075.466,1524.691l1.152-2.28c-165.717-83.853-359.266-57.298-492.451-20.256l0.683,2.46
									C717.601,1467.697,910.478,1441.204,1075.466,1524.691z"/>
							</g>
							<g>
								<path style="fill:#FCFDFE;" d="M803.41,1197.949l2.362-0.968c-79.695-194.115-22.829-406.841,18.162-516.369l-2.392-0.893
									c-32.204,86.049-51.856,175.502-56.834,258.695C758.981,1034.131,772.002,1121.452,803.41,1197.949z"/>
							</g>
						</g>
					</g>
				</g>
			</g>
			<g style="clip-path:url(#SVGID_00000014619401686780507920000001499143371892549311_);">
				<g>
					<defs>
						<path id="SVGID_00000014615751400714864790000012135510345209984903_" d="M1932.002,2751.052
							c106.631-27.9,212.879-58.28,318.654-91.12c1.934,1.396,11.464-238.128-114.083-349.338
							c-247.716-214.944-122.358-446.22-93.884-578.206c48.244-187.01-10.709-401.33-203.903-338.649
							c-188.726,56.447-261.698-336.859-262.163-646.006c11.967-151.81-148.222-316.727-292.762-342.506
							c-147.951-29.906-280.25,79.324-291.255,380.504c-28.301,350.437,244.95,529.73,356.662,691.533
							c109.876,158.815-87.297,318.878,100.054,449.662c158.37,117.103,350.025,192.698,302.202,367.022
							C1701.68,2466.583,1732.873,2599.783,1932.002,2751.052z"/>
					</defs>
					<clipPath id="SVGID_00000134223029467113898940000004088152090492471226_">
						<use xlink:href="#SVGID_00000014615751400714864790000012135510345209984903_"  style="overflow:visible;"/>
					</clipPath>
					
						<linearGradient id="SVGID_00000057865247014199472480000015004673475321627287_" gradientUnits="userSpaceOnUse" x1="1999.3418" y1="430.5788" x2="1216.3539" y2="2655.9148" gradientTransform="matrix(0.8076 -0.5897 0.5897 0.8076 -579.7622 1284.7437)">
						<stop  offset="0" style="stop-color:#FF9085"/>
						<stop  offset="1" style="stop-color:#FB6FBB"/>
					</linearGradient>
					
						<path style="clip-path:url(#SVGID_00000134223029467113898940000004088152090492471226_);fill:url(#SVGID_00000057865247014199472480000015004673475321627287_);" d="
						M1932.002,2751.052c106.631-27.9,212.879-58.28,318.654-91.12c1.934,1.396,11.464-238.128-114.083-349.338
						c-247.716-214.944-122.358-446.22-93.884-578.206c47.575-186.801-9.29-377.123-192.166-359.85
						c-203.268,15.194-276.959-315.893-273.901-624.805c11.967-151.81-148.222-316.727-292.762-342.506
						c-147.951-29.906-280.25,79.324-291.255,380.504c-28.301,350.437,244.95,529.73,356.662,691.533
						c109.876,158.815-87.297,318.878,100.054,449.662c158.37,117.103,350.025,192.698,302.202,367.022
						C1701.68,2466.583,1732.873,2599.783,1932.002,2751.052z"/>
					<g style="opacity:0.7;clip-path:url(#SVGID_00000134223029467113898940000004088152090492471226_);">
						<g>
							<path style="fill:#FCFDFE;" d="M2079.173,2748.917l3.032-0.358c-0.197-2.095-158.373-486.029-390.237-948.777
								c-33.295-75.416-68.783-151.236-103.103-224.56c-191.277-408.664-371.948-794.665-274.071-1257.121l-2.99-0.633
								c-44.043,208.101-34.266,421.632,29.893,652.799c57.334,206.582,152.432,409.762,244.401,606.249
								c34.312,73.31,69.795,149.114,103.106,224.566C1922.965,2267.624,2078.666,2746.211,2079.173,2748.917z"/>
						</g>
						<g>
							<path style="fill:#FCFDFE;" d="M1416.845,1194.455l2.032-2.28c-135.67-120.943-302.532-295.665-392.176-389.531
								c-67.367-70.541-72.139-75.07-74.345-74.506l0.398,1.474l-0.37,1.447c3.166,1.507,32.083,31.785,72.107,73.695
								C1114.165,898.653,1281.083,1073.432,1416.845,1194.455z"/>
						</g>
						<g>
							<path style="fill:#FCFDFE;" d="M1358.861,1014.824c8.051-157.239,60.565-265.766,103.202-329.115
								c47.108-69.997,93.683-103.03,98.255-103.812c-0.001-0.003-0.274,0.042-0.622-0.134l1.411-2.709
								c-0.794-0.418-1.762-0.331-4.595,1.289c-12.7,7.269-59.12,43.969-104.301,114.828
								c-56.937,89.295-90.272,199.773-96.402,319.498L1358.861,1014.824z"/>
						</g>
						<g>
							<path style="fill:#FCFDFE;" d="M1829.966,2103.638l2.975-0.692c-70.411-302.91,106.341-612.134,185.602-731.02
								c3.921-5.881,5.529-8.304,5.938-9.235l-2.796-1.229c-0.319,0.722-2.569,4.097-5.684,8.77
								c-56.999,85.496-103.172,173.848-137.233,262.6C1813.372,1803.217,1796.953,1961.62,1829.966,2103.638z"/>
						</g>
						<g>
							<path style="fill:#FCFDFE;" d="M1764.364,1958.042l2.405-1.886c-152.939-195.374-427.984-179.655-430.21-178.778
								l-0.977,1.549l1.21,1.379l0.319-1.468l0.322,1.456c0.527-0.086,69.047-4.819,158.794,16.203
								C1575.373,1815.036,1686.138,1858.109,1764.364,1958.042z"/>
						</g>
						<g>
							<path style="fill:#FCFDFE;" d="M2052.164,2670.094l3.023-0.448c-9.185-62.182,1.375-171.052,103.838-336.578
								c5.404-8.728,5.399-8.746,5.162-9.659l-2.957,0.764l1.479-0.382l-1.469-0.352c-0.233,0.624-2.254,3.888-4.813,8.021
								C2053.479,2497.77,2042.905,2607.406,2052.164,2670.094z"/>
						</g>
						<g>
							<path style="fill:#FCFDFE;" d="M2011.642,2555.56l2.823-1.17c-44.085-106.643-207.192-170.413-300.496-198.937
								c-2.92-0.892-5.028-1.537-5.693-1.79l-1.092,2.853c0.764,0.292,2.695,0.883,5.892,1.859
								C1805.864,2386.74,1968.036,2450.075,2011.642,2555.56z"/>
						</g>
					</g>
				</g>
			</g>
		</g>
		<g>
			<g>
				
					<linearGradient id="SVGID_00000108292320845107972990000004213783103899540147_" gradientUnits="userSpaceOnUse" x1="3206.8818" y1="946.2203" x2="5811.2344" y2="2858.5938" gradientTransform="matrix(-1 0 0 1 5811.0015 0)">
					<stop  offset="0" style="stop-color:#311944"/>
					<stop  offset="1" style="stop-color:#6B3976"/>
				</linearGradient>
				<path style="fill:url(#SVGID_00000108292320845107972990000004213783103899540147_);" d="M876.676,820.258l1943.595,34.874
					c39.008,0.7,70.447,42.141,70.447,92.566v1147.789c0,50.425-31.439,94.202-70.447,97.8L876.676,2372.561
					c-52.858,4.875-96.001-39.166-96.001-98.402V925.793C780.675,866.556,823.818,819.31,876.676,820.258z"/>
				<g>
					<g>
						
							<linearGradient id="SVGID_00000044145962444634958930000001064931824823403401_" gradientUnits="userSpaceOnUse" x1="2046.7083" y1="1424.6633" x2="2736.563" y2="1424.6633">
							<stop  offset="0" style="stop-color:#311944"/>
							<stop  offset="1" style="stop-color:#6B3976"/>
						</linearGradient>
						<path style="fill:url(#SVGID_00000044145962444634958930000001064931824823403401_);" d="M2046.708,1434.303
							c0,245.204,161.106,433.94,354.389,421.892c187.514-11.688,335.466-209.073,335.466-441.183s-147.952-421.221-335.466-422.422
							C2207.814,991.353,2046.708,1189.099,2046.708,1434.303z"/>
						
							<linearGradient id="SVGID_00000054230620499808012240000004468600268486295453_" gradientUnits="userSpaceOnUse" x1="2067.3406" y1="1424.6335" x2="2718.0159" y2="1424.6335">
							<stop  offset="0" style="stop-color:#311944"/>
							<stop  offset="1" style="stop-color:#6B3976"/>
						</linearGradient>
						<path style="opacity:0.35;fill:url(#SVGID_00000054230620499808012240000004468600268486295453_);" d="M2067.614,1420.554
							c4.477-176.359,97.566-325.228,224.171-380.491c34.403-15.016,71.188-23.151,109.312-22.981
							c177.029,0.789,316.919,179.172,316.919,398.45c0,219.277-139.89,405.485-316.919,416.174
							c-182.162,11-333.757-167.051-333.757-397.979C2067.341,1429.313,2067.502,1424.94,2067.614,1420.554z"/>
						
							<linearGradient id="SVGID_00000007403152067522684940000017867239417581892486_" gradientUnits="userSpaceOnUse" x1="2067.3406" y1="1424.6335" x2="2718.0159" y2="1424.6335">
							<stop  offset="0" style="stop-color:#311944"/>
							<stop  offset="1" style="stop-color:#6B3976"/>
						</linearGradient>
						<path style="opacity:0.7;fill:url(#SVGID_00000007403152067522684940000017867239417581892486_);" d="M2067.614,1420.554
							c4.477-176.359,97.566-325.228,224.171-380.491c34.403-15.016,71.188-23.151,109.312-22.981
							c177.029,0.789,316.919,179.172,316.919,398.45c0,219.277-139.89,405.485-316.919,416.174
							c-182.162,11-333.757-167.051-333.757-397.979C2067.341,1429.313,2067.502,1424.94,2067.614,1420.554z"/>
						<g style="opacity:0.74;">
							
								<linearGradient id="SVGID_00000036233205271070029420000016475068703229165239_" gradientUnits="userSpaceOnUse" x1="3736.5027" y1="1037.4398" x2="3098.8225" y2="2206.5178" gradientTransform="matrix(-1 0 0 1 5811.0015 0)">
								<stop  offset="0" style="stop-color:#311944"/>
								<stop  offset="1" style="stop-color:#6B3976"/>
							</linearGradient>
							<path style="fill:url(#SVGID_00000036233205271070029420000016475068703229165239_);" d="M2067.614,1420.554
								c4.477-176.359,97.566-325.228,224.171-380.491l109.312,384.331L2067.614,1420.554z"/>
						</g>
					</g>
					<g>
						<g>
							
								<linearGradient id="SVGID_00000065777743403374223470000013867306713304717710_" gradientUnits="userSpaceOnUse" x1="2020.5491" y1="1943.1616" x2="2759.9104" y2="1943.1616">
								<stop  offset="0" style="stop-color:#311944"/>
								<stop  offset="1" style="stop-color:#6B3976"/>
							</linearGradient>
							<polygon style="fill:url(#SVGID_00000065777743403374223470000013867306713304717710_);" points="2020.549,1989.469 
								2759.91,1937.126 2759.91,1896.854 2020.549,1946.757 							"/>
							
								<linearGradient id="SVGID_00000065783228390797593050000007699150841998405047_" gradientUnits="userSpaceOnUse" x1="2020.5491" y1="2026.1458" x2="2759.9104" y2="2026.1458">
								<stop  offset="0" style="stop-color:#311944"/>
								<stop  offset="1" style="stop-color:#6B3976"/>
							</linearGradient>
							<polygon style="fill:url(#SVGID_00000065783228390797593050000007699150841998405047_);" points="2020.549,2074.893 
								2759.91,2017.671 2759.91,1977.399 2020.549,2032.181 							"/>
						</g>
					</g>
				</g>
				
					<linearGradient id="SVGID_00000173144233682256327980000012533095091796964225_" gradientUnits="userSpaceOnUse" x1="957.0394" y1="1881.1295" x2="1864.5389" y2="1881.1295">
					<stop  offset="0" style="stop-color:#311944"/>
					<stop  offset="1" style="stop-color:#6B3976"/>
				</linearGradient>
				<path style="fill:url(#SVGID_00000173144233682256327980000012533095091796964225_);" d="M1210.874,1734.843
					c58.208,2.368,66.837-43.045,123.936-47.933c96.432-8.253,119.971,118.142,212.281,115.098
					c75.003-2.474,93.825-87.726,167.689-79.031c54.709,6.442,65.457,56.004,118.602,62.514c10.591,1.297,21.007,0.623,31.158-1.53
					v293.768l-907.5,69.941V1614.59c49.821,4.463,86.105,19.257,112.047,34.297
					C1131.34,1684.975,1151.952,1732.445,1210.874,1734.843z"/>
				<g>
					
						<linearGradient id="SVGID_00000101062612963765548210000011666866695163420051_" gradientUnits="userSpaceOnUse" x1="957.0394" y1="1041.3347" x2="1864.5389" y2="1041.3347">
						<stop  offset="0" style="stop-color:#311944"/>
						<stop  offset="1" style="stop-color:#6B3976"/>
					</linearGradient>
					<polygon style="fill:url(#SVGID_00000101062612963765548210000011666866695163420051_);" points="957.039,1056.465 
						1864.539,1058.168 1864.539,1028.275 957.039,1024.502 					"/>
					
						<linearGradient id="SVGID_00000024699949495127485230000004793820974245169072_" gradientUnits="userSpaceOnUse" x1="957.0394" y1="1104.2264" x2="1864.5389" y2="1104.2264">
						<stop  offset="0" style="stop-color:#311944"/>
						<stop  offset="1" style="stop-color:#6B3976"/>
					</linearGradient>
					<polygon style="fill:url(#SVGID_00000024699949495127485230000004793820974245169072_);" points="957.039,1120.392 
						1864.539,1117.953 1864.539,1088.061 957.039,1088.429 					"/>
					
						<linearGradient id="SVGID_00000183949091060879408720000017299703815137430690_" gradientUnits="userSpaceOnUse" x1="957.0394" y1="1201.6499" x2="1864.5389" y2="1201.6499">
						<stop  offset="0" style="stop-color:#311944"/>
						<stop  offset="1" style="stop-color:#6B3976"/>
					</linearGradient>
					<polygon style="fill:url(#SVGID_00000183949091060879408720000017299703815137430690_);" points="957.039,1221.077 
						1864.539,1212.115 1864.539,1182.223 957.039,1189.114 					"/>
					
						<linearGradient id="SVGID_00000061433138453694278000000011815307729735717789_" gradientUnits="userSpaceOnUse" x1="957.0394" y1="1263.5054" x2="1864.5389" y2="1263.5054">
						<stop  offset="0" style="stop-color:#311944"/>
						<stop  offset="1" style="stop-color:#6B3976"/>
					</linearGradient>
					<polygon style="fill:url(#SVGID_00000061433138453694278000000011815307729735717789_);" points="957.039,1285.003 
						1864.539,1271.9 1864.539,1242.007 957.039,1253.04 					"/>
					
						<linearGradient id="SVGID_00000000198569960808787910000006133097957558361018_" gradientUnits="userSpaceOnUse" x1="957.0394" y1="1360.929" x2="1864.5389" y2="1360.929">
						<stop  offset="0" style="stop-color:#311944"/>
						<stop  offset="1" style="stop-color:#6B3976"/>
					</linearGradient>
					<polygon style="fill:url(#SVGID_00000000198569960808787910000006133097957558361018_);" points="957.039,1385.688 
						1864.539,1366.062 1864.539,1336.17 957.039,1353.725 					"/>
					
						<linearGradient id="SVGID_00000002342571612741773480000006735859753846677390_" gradientUnits="userSpaceOnUse" x1="957.0394" y1="1422.7852" x2="1864.5389" y2="1422.7852">
						<stop  offset="0" style="stop-color:#311944"/>
						<stop  offset="1" style="stop-color:#6B3976"/>
					</linearGradient>
					<polygon style="fill:url(#SVGID_00000002342571612741773480000006735859753846677390_);" points="957.039,1449.615 
						1864.539,1425.848 1864.539,1395.955 957.039,1417.651 					"/>
				</g>
			</g>
			<g>
				
					<linearGradient id="SVGID_00000137832247517799444810000017581523157591697337_" gradientUnits="userSpaceOnUse" x1="1037.6849" y1="998.0939" x2="3548.553" y2="2841.8218">
					<stop  offset="0" style="stop-color:#AA80F9"/>
					<stop  offset="0.9964" style="stop-color:#6165D7"/>
				</linearGradient>
				<path style="fill:url(#SVGID_00000137832247517799444810000017581523157591697337_);" d="M2928.008,947.697v1147.798
					c0,45.079-25.956,84.81-59.137,95.328c-3.93,1.274-8.429,2.089-12.572,2.479L913.085,2372.555
					c-52.87,4.888-95.611-39.164-95.611-98.409V925.778c0-59.209,42.529-106.484,95.399-105.528l175.767,3.152l1768.236,31.729
					C2895.864,855.839,2928.008,897.27,2928.008,947.697z"/>
				<g>
					<g>
						<path style="fill:#FFFFFF;" d="M2082.302,1434.303c0,245.204,161.106,433.94,354.389,421.892
							c187.514-11.688,335.466-209.073,335.466-441.183s-147.952-421.221-335.466-422.422
							C2243.408,991.353,2082.302,1189.099,2082.302,1434.303z"/>
						<path style="opacity:0.35;fill:#FFFFFF;" d="M2103.208,1420.554c4.477-176.359,97.566-325.228,224.172-380.491
							c34.403-15.016,71.188-23.151,109.312-22.981c177.029,0.789,316.919,179.172,316.919,398.45
							c0,219.277-139.89,405.485-316.919,416.174c-182.162,11-333.757-167.051-333.757-397.979
							C2102.935,1429.313,2103.096,1424.94,2103.208,1420.554z"/>
						<path style="opacity:0.7;fill:#FFFFFF;" d="M2103.208,1420.554c4.477-176.359,97.566-325.228,224.172-380.491
							c34.403-15.016,71.188-23.151,109.312-22.981c177.029,0.789,316.919,179.172,316.919,398.45
							c0,219.277-139.89,405.485-316.919,416.174c-182.162,11-333.757-167.051-333.757-397.979
							C2102.935,1429.313,2103.096,1424.94,2103.208,1420.554z"/>
						<g style="opacity:0.74;">
							
								<linearGradient id="SVGID_00000155109098647906690010000012671753874855120518_" gradientUnits="userSpaceOnUse" x1="3700.9082" y1="1037.4398" x2="3063.2283" y2="2206.5178" gradientTransform="matrix(-1 0 0 1 5811.0015 0)">
								<stop  offset="0" style="stop-color:#AA80F9"/>
								<stop  offset="0.9964" style="stop-color:#6165D7"/>
							</linearGradient>
							<path style="fill:url(#SVGID_00000155109098647906690010000012671753874855120518_);" d="M2103.208,1420.554
								c4.477-176.359,97.566-325.228,224.172-380.491l109.312,384.331L2103.208,1420.554z"/>
						</g>
					</g>
					<g>
						<g>
							<polygon style="fill:#FFFFFF;" points="2056.144,1989.469 2795.505,1937.126 2795.505,1896.854 2056.144,1946.757 							"/>
							<polygon style="fill:#FFFFFF;" points="2056.144,2074.893 2795.505,2017.671 2795.505,1977.399 2056.144,2032.181 							"/>
						</g>
					</g>
				</g>
				<path style="fill:#FFFFFF;" d="M1246.468,1734.843c58.208,2.368,66.837-43.045,123.936-47.933
					c96.432-8.253,119.971,118.142,212.281,115.098c75.003-2.474,93.825-87.726,167.689-79.031
					c54.709,6.442,65.457,56.004,118.602,62.514c10.591,1.297,21.007,0.623,31.158-1.53v293.768l-907.5,69.941V1614.59
					c49.821,4.463,86.105,19.257,112.047,34.297C1166.934,1684.975,1187.546,1732.445,1246.468,1734.843z"/>
				<g>
					<polygon style="fill:#FFFFFF;" points="992.634,1056.465 1900.133,1058.168 1900.133,1028.275 992.634,1024.502 					"/>
					<polygon style="fill:#FFFFFF;" points="992.634,1120.392 1900.133,1117.953 1900.133,1088.061 992.634,1088.429 					"/>
					<polygon style="fill:#FFFFFF;" points="992.634,1221.077 1900.133,1212.115 1900.133,1182.223 992.634,1189.114 					"/>
					<polygon style="fill:#FFFFFF;" points="992.634,1285.003 1900.133,1271.9 1900.133,1242.007 992.634,1253.04 					"/>
					<polygon style="fill:#FFFFFF;" points="992.634,1385.688 1900.133,1366.062 1900.133,1336.17 992.634,1353.725 					"/>
					<polygon style="fill:#FFFFFF;" points="992.634,1449.615 1900.133,1425.848 1900.133,1395.955 992.634,1417.651 					"/>
				</g>
			</g>
			<path style="opacity:0.2;fill:#FFFFFF;" d="M2868.021,2190.823c-3.93,1.274-8.004,2.089-12.147,2.479L912.872,2372.555
				c-52.87,4.888-95.399-39.164-95.399-98.409V925.778c0-59.209,42.529-106.484,95.399-105.528l175.767,3.152
				c50.425,43.627,94.576,107.757,113.236,201.952c2.02,10.164,3.644,20.645,5.026,31.516c0.069,0.425,0.068,0.885,0.139,1.311
				c1.274,10.305,2.495,20.362,3.699,30.171c1.311,10.765,2.577,21.247,3.781,31.445c2.869,23.974,5.554,46.497,8.21,67.566
				c1.416,10.836,2.795,21.318,4.212,31.411c1.523,10.871,3.08,21.318,4.709,31.374c1.771,10.907,3.648,21.354,5.666,31.305
				c5.064,25.461,11.012,47.806,18.554,67.175c4.427,11.332,9.385,21.672,15.086,31.056c7.117,11.758,15.333,21.99,24.964,30.702
				c14.448,13.208,32.049,23.054,53.826,29.887c38.138,11.934,89.094,14.59,158.255,9.349
				c272.493-20.645,410.775,172.207,463.893,431.491c9.136,44.654,39.591,70.151,84.245,84.457
				c30.702,9.809,68.133,14.341,109.918,16.112c124.011,5.277,286.692-13.563,427.347,10.694
				c39.627,6.799,77.517,17.033,112.29,32.225C2776.411,2055.444,2834.309,2106.649,2868.021,2190.823z"/>
		</g>
		<g>
			
				<linearGradient id="SVGID_00000134226240878698064510000009366889465011157678_" gradientUnits="userSpaceOnUse" x1="6968.8428" y1="3931.5361" x2="7017.4399" y2="3974.7634" gradientTransform="matrix(-0.9902 -0.14 -0.14 0.9902 8522.9238 206.9384)">
				<stop  offset="0" style="stop-color:#444B8C"/>
				<stop  offset="0.9964" style="stop-color:#26264F"/>
			</linearGradient>
			<path style="fill:url(#SVGID_00000134226240878698064510000009366889465011157678_);" d="M1058.296,3146.295
				c-1.383-7.618-25.986-14.515-38.168-4.31c-6.05,5.067-10.215,15.337-6.715,19.976c1.274,1.687-3.942,4.655,1.055,4.713
				C1031.041,3166.868,1059.672,3153.865,1058.296,3146.295z"/>
			
				<linearGradient id="SVGID_00000078042654521460053540000008848948282385359758_" gradientUnits="userSpaceOnUse" x1="6800.8306" y1="3354.2883" x2="6800.8306" y2="3269.6279" gradientTransform="matrix(-0.9988 0.0498 0.0498 0.9988 7646.4771 -528.7908)">
				<stop  offset="0" style="stop-color:#FFC444"/>
				<stop  offset="0.9964" style="stop-color:#F36F56"/>
			</linearGradient>
			<path style="fill:url(#SVGID_00000078042654521460053540000008848948282385359758_);" d="M1031.393,3146.335l-25.523,1.273
				c8.842-16.075-1.789-59.8-1.789-59.8l27.56,0.809c0,0-0.679,12.694-2.358,31.55
				C1028.707,3126.622,1029.767,3136.346,1031.393,3146.335z"/>
			
				<linearGradient id="SVGID_00000065779887919471318280000016275366398912626051_" gradientUnits="userSpaceOnUse" x1="6973.729" y1="3926.0454" x2="7022.3252" y2="3969.272" gradientTransform="matrix(-0.9902 -0.14 -0.14 0.9902 8522.9238 206.9384)">
				<stop  offset="0" style="stop-color:#444B8C"/>
				<stop  offset="0.9964" style="stop-color:#26264F"/>
			</linearGradient>
			<path style="fill:url(#SVGID_00000065779887919471318280000016275366398912626051_);" d="M1034.752,3145.951
				c0,0-30.463-7.019-33.758-0.977c-3.296,6.043-5.854,22.222,13.473,21.7C1033.796,3166.153,1036.469,3151.075,1034.752,3145.951z"
				/>
			
				<linearGradient id="SVGID_00000067931779318979216850000003735082188302171818_" gradientUnits="userSpaceOnUse" x1="7028.2603" y1="3177.8691" x2="7076.8594" y2="3221.0979" gradientTransform="matrix(-1 0 0 1 8420.0811 0)">
				<stop  offset="0" style="stop-color:#444B8C"/>
				<stop  offset="0.9964" style="stop-color:#26264F"/>
			</linearGradient>
			<path style="fill:url(#SVGID_00000067931779318979216850000003735082188302171818_);" d="M1381.369,3201.553
				c-2.436-7.349-27.762-10.734-38.396,1.075c-5.279,5.862-7.967,16.615-3.852,20.718c1.497,1.494-3.25,5.163,1.705,4.521
				C1357.262,3225.739,1383.79,3208.856,1381.369,3201.553z"/>
			
				<linearGradient id="SVGID_00000005972291029575923310000014264667246723426959_" gradientUnits="userSpaceOnUse" x1="6794.0596" y1="2544.8855" x2="6794.0596" y2="2460.2227" gradientTransform="matrix(-0.9813 0.1926 0.1926 0.9813 7519.8589 -582.0115)">
				<stop  offset="0" style="stop-color:#FFC444"/>
				<stop  offset="0.9964" style="stop-color:#F36F56"/>
			</linearGradient>
			<path style="fill:url(#SVGID_00000005972291029575923310000014264667246723426959_);" d="M1351.441,3208.633l-25.075,4.92
				c6.445-17.178-10.35-58.924-10.35-58.924l27.391-3.154c0,0,1.15,12.661,2.192,31.562
				C1345.955,3189.508,1348.399,3198.98,1351.441,3208.633z"/>
			
				<linearGradient id="SVGID_00000096047197676033799330000003411154709257662648_" gradientUnits="userSpaceOnUse" x1="7033.146" y1="3172.3777" x2="7081.7446" y2="3215.6062" gradientTransform="matrix(-1 0 0 1 8420.0811 0)">
				<stop  offset="0" style="stop-color:#444B8C"/>
				<stop  offset="0.9964" style="stop-color:#26264F"/>
			</linearGradient>
			<path style="fill:url(#SVGID_00000096047197676033799330000003411154709257662648_);" d="M1358.01,3204.508
				c0,0-31.146-2.686-33.562,3.76c-2.417,6.443-2.686,22.821,16.379,19.599C1359.889,3224.646,1360.427,3209.34,1358.01,3204.508z"
				/>
			
				<linearGradient id="SVGID_00000050626778952500637870000003536715861265922476_" gradientUnits="userSpaceOnUse" x1="4683.3682" y1="2710.0769" x2="4884.1807" y2="2710.0769" gradientTransform="matrix(-1 0 0 1 5811.0015 0)">
				<stop  offset="0" style="stop-color:#311944"/>
				<stop  offset="1" style="stop-color:#6B3976"/>
			</linearGradient>
			<path style="fill:url(#SVGID_00000050626778952500637870000003536715861265922476_);" d="M1127.633,2326.01
				c-6.831,116.774-16.393,238.205-29.275,363.873c-14.923,145.586-33.053,284.691-53.381,416.899c-25.059,8.593-48.217,0-48.217,0
				s-29.3-47.99-51.66-175.536c-14.346-81.839-15.337-80.807-15.498-95.082c-0.811-72.025,24.457-92.876,29.274-157.251
				c4.457-59.561-14.502-77.399-25.83-144.451c-8.711-51.561-11.976-126.701,15.498-224.906
				C1008.24,2315.039,1067.936,2320.525,1127.633,2326.01z"/>
			
				<linearGradient id="SVGID_00000091722652878667599730000017447152107724661391_" gradientUnits="userSpaceOnUse" x1="4683.3682" y1="2710.0769" x2="4867.8247" y2="2710.0769" gradientTransform="matrix(-1 0 0 1 5811.0015 0)">
				<stop  offset="0" style="stop-color:#311944"/>
				<stop  offset="1" style="stop-color:#6B3976"/>
			</linearGradient>
			<path style="opacity:0.3;fill:url(#SVGID_00000091722652878667599730000017447152107724661391_);" d="M1127.633,2326.01
				c-6.83,116.774-16.393,238.205-29.275,363.872c-14.923,145.586-33.053,284.691-53.382,416.899c-25.059,8.593-48.216,0-48.216,0
				c0.318-12.238,1.172-30.677,3.728-52.952c6.779-59.083,17.582-75.893,18.691-112.149c1.418-46.368-15.37-47.795-18.691-93.457
				c-5.148-70.775,33.714-87.56,37.382-149.531c3.877-65.48-37.123-87.027-68.535-168.223c-18.542-47.93-35-119.893-20.792-220.917
				C1008.24,2315.039,1067.936,2320.525,1127.633,2326.01z"/>
			
				<linearGradient id="SVGID_00000072966518314273797000000013508858353416530312_" gradientUnits="userSpaceOnUse" x1="5054.8472" y1="2847.5171" x2="4502.4146" y2="2747.8301" gradientTransform="matrix(-1 0 0 1 5811.0015 0)">
				<stop  offset="0" style="stop-color:#311944"/>
				<stop  offset="0.7407" style="stop-color:#5C3169"/>
				<stop  offset="1" style="stop-color:#6B3976"/>
			</linearGradient>
			<path style="fill:url(#SVGID_00000072966518314273797000000013508858353416530312_);" d="M1253.339,2322.353
				c34.311,115.581,67.564,259.146,86.1,426.041c17.99,161.974,17.663,305.819,10.332,424.213
				c-10.907,3.047-21.812,6.095-32.718,9.142c-63.417-66.352-86.059-127.337-94.711-171.879
				c-12.798-65.889,6.486-88.23-10.332-162.737c-3.869-17.139-9.312-35.549-72.324-159.079
				c-60.14-117.901-72.471-135.025-82.656-177.365c-14.539-60.437-10.704-114.035-5.167-149.938
				C1119.022,2347.953,1186.18,2335.153,1253.339,2322.353z"/>
			<g>
				<path style="fill:#26264F;" d="M1523.765,2072.541l107.615-252.085c5.377-12.595-1.843-27.002-15.15-30.235l-197.127-47.874
					c-10.654-2.587-21.598,3.005-25.744,13.154l-98.983,242.285c-4.929,12.065,1.568,25.758,14.031,29.571l188.493,57.673
					C1507.731,2088.346,1519.317,2082.958,1523.765,2072.541z"/>
				
					<linearGradient id="SVGID_00000142870786149488107820000009136018015150877094_" gradientUnits="userSpaceOnUse" x1="4372.5859" y1="1919.1665" x2="4120.0771" y2="1829.5663" gradientTransform="matrix(-1 0 0 1 5811.0015 0)">
					<stop  offset="0" style="stop-color:#FFC444"/>
					<stop  offset="0.6366" style="stop-color:#F78E50"/>
					<stop  offset="0.9964" style="stop-color:#F36F56"/>
				</linearGradient>
				<path style="fill:url(#SVGID_00000142870786149488107820000009136018015150877094_);" d="M1518.893,2060.417l100.521-235.466
					c5.021-11.764-1.722-25.223-14.152-28.241l-184.131-44.717c-9.951-2.417-20.173,2.806-24.046,12.286l-92.457,226.312
					c-4.604,11.269,1.464,24.059,13.106,27.622l176.066,53.871C1503.917,2075.179,1514.739,2070.147,1518.893,2060.417z"/>
			</g>
			
				<linearGradient id="SVGID_00000023243946027053852190000018090469519365462453_" gradientUnits="userSpaceOnUse" x1="4233.0742" y1="1900.4398" x2="4203.3696" y2="2036.0481" gradientTransform="matrix(-1 0 0 1 5811.0015 0)">
				<stop  offset="0" style="stop-color:#FFC444"/>
				<stop  offset="0.9964" style="stop-color:#F36F56"/>
			</linearGradient>
			<path style="fill:url(#SVGID_00000023243946027053852190000018090469519365462453_);" d="M1580.95,1991.198l3.229-29.704
				l17.115-32.627c2.331-4.443,3.548-9.385,3.548-14.403v-32.398l-20.664,47.786c0,0-13.561-12.27-18.727-14.853
				c-5.166-2.583-4.52,7.75-0.646,11.624c3.875,3.874-1.937,35.516,1.937,38.745l-1.291,19.373L1580.95,1991.198z"/>
			
				<linearGradient id="SVGID_00000147931089396342714910000002119706693576472711_" gradientUnits="userSpaceOnUse" x1="4386.6431" y1="2069.8933" x2="4946.9238" y2="2069.8933" gradientTransform="matrix(-1 0 0 1 5811.0015 0)">
				<stop  offset="0" style="stop-color:#FF9085"/>
				<stop  offset="1" style="stop-color:#FB6FBB"/>
			</linearGradient>
			<path style="fill:url(#SVGID_00000147931089396342714910000002119706693576472711_);" d="M1416.929,1801.992
				c-16.07-39.296-50.563-61.896-68.45-73.615c-42.321-27.729-69.416-22.667-166.604-37.454
				c-129.524-19.707-145.028-38.381-188.56-23.247c-57.182,19.879-87.051,71.786-100.737,95.572
				c-69.003,119.917,11.672,180.867-9.041,419.739c-8.458,97.556-30.148,182.333,21.956,232.47
				c10.971,10.557,23.242,16.078,47.786,27.122c97.336,43.796,184.606,36.247,237.637,30.996
				c58.354-5.778,87.847-9.087,103.32-29.705c24.716-32.933-0.727-74.791-5.166-147.231c-3.187-52.009,8.638-93.221,32.288-175.645
				C1376.338,1929.376,1447.718,1877.279,1416.929,1801.992z"/>
			<g>
				<g>
					
						<linearGradient id="SVGID_00000136372188266732726630000003293765000858275968_" gradientUnits="userSpaceOnUse" x1="7752.7603" y1="531.4214" x2="7967.061" y2="801.0391" gradientTransform="matrix(-0.9663 0.2576 0.2576 0.9663 8555.3418 -923.8408)">
						<stop  offset="0" style="stop-color:#FFC444"/>
						<stop  offset="0.9964" style="stop-color:#F36F56"/>
					</linearGradient>
					<path style="fill:url(#SVGID_00000136372188266732726630000003293765000858275968_);" d="M1200.127,1620.237
						c5.897-21.008-4.412-40.463-6.685-44.655c-9.513-17.551-11.95-19.948-16.489-22.988l-6.31-3.892c0,0-0.366-0.147-0.75-0.284
						c-4.049-1.441-17.85-1.861-20.645-1.263c-8.931,1.906-18.44,38.292-15.727,89.732c-0.371,1.96-0.727,3.938-1.073,5.931
						c-1.406,8.124-2.524,16.086-3.388,23.871c-0.826,7.447-11.386,7.276-18.863,6.799c-30.35-1.937-45.202,0.646-46.494,5.166
						c-2.42,8.471,33.58,36.163,78.031,42.393c59.657,0.443,108.186-5.909,102.97-15.303c-2.316-4.171-48.539-16.249-61.539-28.219
						c-11.903-10.963-10.933-22.278-11.912-30.381C1174.862,1645.27,1195.786,1635.714,1200.127,1620.237z"/>
					<path style="fill:#26264F;" d="M1189.154,1534.089c-0.053,15.937-7.562,32.956-11.388,35.691
						c-0.493,0.353-3.274,2.55-5.772,6.305c-0.34,0.511-0.641,1.109-0.908,1.884c-3.491,10.042,12.476,21.861,9.395,26.358
						c-2.236,3.262-13.088-1.1-14.379,1.717c-1.215,2.65,7.804,8.14,6.422,11.315c-1.042,2.397-6.592,0.204-10.092,3.876
						c-1.745,1.829-1.233,3.278-3.082,8.87c-1.045,3.162-2.507,6.621-3.641,8.546c-5.508,9.357-21.106,12.775-24.108,9.031
						c-0.835-1.044-0.118-1.921-0.972-5.423c0,0-0.791-3.245-3.049-6.998c-3.226-5.362-11.015-9.196-18.875-14.855
						c-14.554-10.481-18.51-19.415-19.697-22.433c-0.422-1.075-0.685-1.887-0.874-2.471c-3.785-11.747-3.802-29,1.479-39.612
						c8.846-17.774,28.803-9.335,45.137-26.947c18.847-20.32,7.622-48.094,17.85-51.161
						C1163.871,1474.399,1189.252,1504.622,1189.154,1534.089z"/>
					
						<linearGradient id="SVGID_00000005952359504330504080000016245034361783657146_" gradientUnits="userSpaceOnUse" x1="7726.1235" y1="471.4341" x2="7965.395" y2="772.4677" gradientTransform="matrix(-0.9663 0.2576 0.2576 0.9663 8555.3418 -923.8408)">
						<stop  offset="0" style="stop-color:#FFC444"/>
						<stop  offset="0.9964" style="stop-color:#F36F56"/>
					</linearGradient>
					<path style="fill:url(#SVGID_00000005952359504330504080000016245034361783657146_);" d="M1174.752,1600.581
						c-3.906-5.366-10.769-0.324-10.809,6.62c-0.041,6.943,6.688,14.163,13.215,12.792
						C1183.686,1618.622,1180.009,1607.806,1174.752,1600.581z"/>
				</g>
				<path style="fill:#26264F;" d="M1171.585,1588.964l9.061,11.788c0,0,9.769,14.442,15.472,6.53
					c4.659-6.465,5.866-6.321,6.152-6.05c0.054,0.051,0.069,0.129,0.082,0.125c0.082-0.022-0.683-3.218-1.37-6.027
					c2.412,3.463,5.736,9.08,7.75,16.638c1.955,7.341,4.052,15.201-0.091,22.751c-0.239,0.436-4.802,8.473-13.321,10.417
					c0,0-3.35,0.764-17.506-1.723c0,0,15.472-11.228,15.71-13.895c0.641-7.253-9.418-11.172-16.886-26.041
					C1173.757,1597.743,1172.338,1592.543,1171.585,1588.964z"/>
			</g>
			
				<linearGradient id="SVGID_00000110472771224955256290000001574924884180274326_" gradientUnits="userSpaceOnUse" x1="4374.6606" y1="2021.5891" x2="4718.2007" y2="2349.6311" gradientTransform="matrix(-1 0 0 1 5811.0015 0)">
				<stop  offset="0" style="stop-color:#FF9085"/>
				<stop  offset="1" style="stop-color:#FB6FBB"/>
			</linearGradient>
			<path style="opacity:0.3;fill:url(#SVGID_00000110472771224955256290000001574924884180274326_);" d="M1140.547,2405.125
				c17.168-34.183-24.9-79.622,2.583-131.733c23.341-44.259,65.743-34.344,85.239-74.907c23.548-48.994-27.664-85.611-25.83-160.146
				c2.192-89.105,78.862-178.301,123.984-170.478c29.194,5.06,32.944,48.614,53.485,96.294
				c-18.175,39.855-39.411,89.787-58.651,156.84c-23.65,82.424-35.475,123.636-32.288,175.645
				c4.439,72.441,29.882,114.298,5.166,147.231c-15.473,20.618-44.967,23.927-103.32,29.705
				c-53.031,5.25-140.301,12.8-237.637-30.996c-12.32-5.544-21.544-9.696-29.068-13.792
				C1076.281,2451.623,1126.931,2432.238,1140.547,2405.125z"/>
			
				<linearGradient id="SVGID_00000127031317247810628130000007218913873262565018_" gradientUnits="userSpaceOnUse" x1="4223.6812" y1="1937.1956" x2="4529.9346" y2="1937.1956" gradientTransform="matrix(-1 0 0 1 5811.0015 0)">
				<stop  offset="0" style="stop-color:#FF9085"/>
				<stop  offset="1" style="stop-color:#FB6FBB"/>
			</linearGradient>
			<path style="fill:url(#SVGID_00000127031317247810628130000007218913873262565018_);" d="M1586.762,1985.386
				c-9.471-4.09-18.942-8.18-28.413-12.269c-16.007,16.371-36.423,32.29-53.597,27.121c-25.6-7.704-19.199-54.799-50.368-137.545
				c-35.317-93.755-75.387-117.853-95.572-126.567c-11.274-4.867-19.057-8.099-28.413-5.812
				c-43.049,10.523-57.281,122.703-45.203,206.641c6.806,47.292,20.15,140.023,96.217,184.04
				c10.806,6.253,70.286,40.671,129.15,13.562C1560.851,2111.394,1591.925,2051.973,1586.762,1985.386z"/>
		</g>
		<g>
			
				<linearGradient id="SVGID_00000124157310081127289960000018426373845129899953_" gradientUnits="userSpaceOnUse" x1="3545.8352" y1="1469.4948" x2="3503.2234" y2="1638.8201" gradientTransform="matrix(-1 0 0 1 5811.0015 0)">
				<stop  offset="0" style="stop-color:#FFC444"/>
				<stop  offset="0.9964" style="stop-color:#F36F56"/>
			</linearGradient>
			<path style="fill:url(#SVGID_00000124157310081127289960000018426373845129899953_);" d="M2277.6,1555.936
				c0,0-9.01-18.02,0-40.545c9.01-22.525,9.01-58.565,13.515-72.08c1.087-3.261,0.863-5.21-0.166-5.975
				c-2.12-1.576-11.849,11.369-17.854,23.996c-10.648,22.388-7.701,39.433-13.515,40.545c-6.501,1.244-13.788-19.373-18.02-18.02
				c-3.279,1.048,0,14.336,0,27.03c0,9.01,22.525,54.06,22.525,54.06L2277.6,1555.936z"/>
			
				<linearGradient id="SVGID_00000034070791632827819430000005622515585769474953_" gradientUnits="userSpaceOnUse" x1="2251.9287" y1="1719.0348" x2="2769.2827" y2="1719.0348">
				<stop  offset="0" style="stop-color:#FCB148"/>
				<stop  offset="0.0521" style="stop-color:#FDBA46"/>
				<stop  offset="0.1424" style="stop-color:#FFC244"/>
				<stop  offset="0.3183" style="stop-color:#FFC444"/>
				<stop  offset="0.4849" style="stop-color:#FDB946"/>
				<stop  offset="0.7754" style="stop-color:#F99C4D"/>
				<stop  offset="0.8658" style="stop-color:#F8924F"/>
				<stop  offset="1" style="stop-color:#F8924F"/>
			</linearGradient>
			<path style="fill:url(#SVGID_00000034070791632827819430000005622515585769474953_);" d="M2768.701,1750.752
				c1.082-22.063,3.446-70.283-23.226-87.097c-35.226-22.207-87.08,31.817-145.161,46.452
				c-61.067,15.386-159.609-5.065-319.354-179.999c-9.677,9.677-19.355,19.354-29.032,29.032
				c16.493,58.037,58.84,172.214,168.386,255.483c25.575,19.441,180.954,137.548,278.709,75.484
				C2746.948,1859.679,2766.524,1795.155,2768.701,1750.752z"/>
			
				<linearGradient id="SVGID_00000076581917959640635210000004206285702220570756_" gradientUnits="userSpaceOnUse" x1="-795.5173" y1="3057.4944" x2="-713.2537" y2="3057.4944" gradientTransform="matrix(0.9996 0.029 -0.029 0.9996 3605.0195 -30.9913)">
				<stop  offset="0" style="stop-color:#444B8C"/>
				<stop  offset="0.9964" style="stop-color:#26264F"/>
			</linearGradient>
			<path style="fill:url(#SVGID_00000076581917959640635210000004206285702220570756_);" d="M2797.186,2985.387
				c4.499,3.657,5.325,12.789,5.865,18.758c0.243,2.666,0.363,4,0.065,4.942c-2.174,6.869-15.497,7.591-36.39,9.725
				c-33.016,3.371-42.841,5.969-45.425,1.056c-2.422-4.604,3.439-12.143,4.099-12.975c3.548-4.468,7.902-6.094,16.321-8.864
				c15.577-5.126,26.102-7.933,29.288-8.783C2790.907,2983.936,2794.231,2982.986,2797.186,2985.387z"/>
			
				<linearGradient id="SVGID_00000082365383001839334830000014727581004444928697_" gradientUnits="userSpaceOnUse" x1="-375.5594" y1="3236.094" x2="-339.4688" y2="3161.3948" gradientTransform="matrix(0.9925 0.1226 -0.1226 0.9925 3537.7947 -162.4015)">
				<stop  offset="0" style="stop-color:#FFC444"/>
				<stop  offset="0.9964" style="stop-color:#F36F56"/>
			</linearGradient>
			<path style="fill:url(#SVGID_00000082365383001839334830000014727581004444928697_);" d="M2777.553,2955.224l-3.307,37.623
				c0.938,1.817,12.121,7.267,21.003,2.594l8.491-36.982L2777.553,2955.224z"/>
			
				<linearGradient id="SVGID_00000134938036756603286550000009848897601489175463_" gradientUnits="userSpaceOnUse" x1="-279.5183" y1="3475.2012" x2="-192.1176" y2="3475.2012" gradientTransform="matrix(0.9642 0.2651 -0.2651 0.9642 3618.1511 -308.9189)">
				<stop  offset="0" style="stop-color:#444B8C"/>
				<stop  offset="0.9964" style="stop-color:#26264F"/>
			</linearGradient>
			<path style="fill:url(#SVGID_00000134938036756603286550000009848897601489175463_);" d="M2508.583,2968.751
				c5.392,5.954,6.62,16.918,1.932,22.319c-4.608,5.311-11.539,1.328-31.191,1.915c-21.052,0.629-26.549,5.601-40.855,1.654
				c-5.779-1.598-15.987-5.473-15.793-9.6c0.136-2.902,5.333-4.401,22.69-10.216c24.637-8.253,24.529-8.704,29.761-9.571
				C2488.266,2963.076,2501.461,2960.889,2508.583,2968.751z"/>
			
				<linearGradient id="SVGID_00000069383334522393625000000007291693615951827597_" gradientUnits="userSpaceOnUse" x1="-470.1262" y1="3368.1443" x2="-433.2693" y2="3291.8589" gradientTransform="matrix(0.9802 0.1979 -0.1979 0.9802 3606.9409 -227.1835)">
				<stop  offset="0" style="stop-color:#FFC444"/>
				<stop  offset="0.9964" style="stop-color:#F36F56"/>
			</linearGradient>
			<path style="fill:url(#SVGID_00000069383334522393625000000007291693615951827597_);" d="M2495.094,2934.415l-10.559,35.123
				c0.798,1.884,11.532,8.168,20.744,4.188l15.682-34.09L2495.094,2934.415z"/>
			
				<linearGradient id="SVGID_00000032610052885920771610000001406925014134817182_" gradientUnits="userSpaceOnUse" x1="3354.9297" y1="2825.5103" x2="3121.8159" y2="2300.0164" gradientTransform="matrix(-1 0 0 1 5811.0015 0)">
				<stop  offset="0" style="stop-color:#444B8C"/>
				<stop  offset="0.9964" style="stop-color:#26264F"/>
			</linearGradient>
			<path style="fill:url(#SVGID_00000032610052885920771610000001406925014134817182_);" d="M2588.911,2165.171
				c-1.513,118.04-9.568,250.761-28.895,394.955c-19.102,142.514-45.871,271.281-75.071,384.515
				c13.472,3.625,26.944,7.249,40.415,10.873c34.178-31.869,77.293-82.037,98.098-152.932
				c12.912-44.002,8.609-66.613,16.799-120.734c13.041-86.173,39.457-131.32,66.758-200.81
				c24.534-62.443,53.534-154.085,69.083-276.581C2713.702,2191.362,2651.306,2178.266,2588.911,2165.171z"/>
			
				<linearGradient id="SVGID_00000007388528969235116160000002427046217135099277_" gradientUnits="userSpaceOnUse" x1="3354.9299" y1="2825.5103" x2="3121.8162" y2="2300.0161" gradientTransform="matrix(-1 0 0 1 5811.0015 0)">
				<stop  offset="0" style="stop-color:#444B8C"/>
				<stop  offset="0.9964" style="stop-color:#26264F"/>
			</linearGradient>
			<path style="opacity:0.3;fill:url(#SVGID_00000007388528969235116160000002427046217135099277_);" d="M2588.911,2165.171
				c36.795,28.05,82.527,72.281,81.081,125.579c-1.073,39.55-27.112,46.824-46.451,104.516c-23.713,70.737,5.178,90.397-11.613,180
				c-12.498,66.691-27.847,52.299-46.452,133.548c-16.566,72.345-9.209,104.77-34.839,162.58
				c-14.748,33.266-32.821,57.801-45.692,73.247c13.471,3.625,26.944,7.249,40.415,10.873
				c34.178-31.869,77.293-82.037,98.098-152.932c12.912-44.002,8.609-66.613,16.8-120.734c13.04-86.173,39.456-131.32,66.758-200.81
				c24.534-62.443,53.535-154.085,69.083-276.581C2713.702,2191.362,2651.306,2178.266,2588.911,2165.171z"/>
			
				<linearGradient id="SVGID_00000173869528318981302930000009286004182276611733_" gradientUnits="userSpaceOnUse" x1="2768.9209" y1="3117.0542" x2="2535.8184" y2="2591.5854" gradientTransform="matrix(-0.9925 -0.1226 -0.1226 0.9925 5727.625 107.9742)">
				<stop  offset="0" style="stop-color:#444B8C"/>
				<stop  offset="0.9964" style="stop-color:#26264F"/>
			</linearGradient>
			<path style="fill:url(#SVGID_00000173869528318981302930000009286004182276611733_);" d="M2737.327,2165.705
				c8.237,150.127,15.01,303.048,20.14,458.677c3.851,116.784,6.677,232.087,8.552,345.872c13.761,1.7,27.522,3.401,41.284,5.099
				c13.298-24.756,30.961-62.604,43.063-111.116c14.698-58.918,11.297-93.908,17.744-154.973
				c7.235-68.489,17.738-83.41,36.347-169.807c37.771-175.34,56.656-263.011,14.537-317.55
				C2905.322,2204.203,2862.459,2159.789,2737.327,2165.705z"/>
			
				<linearGradient id="SVGID_00000100372440580528601040000007729121607664127410_" gradientUnits="userSpaceOnUse" x1="-2945.9036" y1="1457.2617" x2="-2124.8372" y2="2014.9668" gradientTransform="matrix(1 0 0 1 5580.7158 0)">
				<stop  offset="0" style="stop-color:#311944"/>
				<stop  offset="1" style="stop-color:#6B3976"/>
			</linearGradient>
			<path style="fill:url(#SVGID_00000100372440580528601040000007729121607664127410_);" d="M2679.922,1753.915
				c-15.446-10.015-1.372-39.146-0.54-101.721c1.019-76.681-19.347-90.97-2.989-121.055c20.002-36.787,70.353-52.01,103.712-52.729
				c7.357-0.157,9.077-4.175,70.716,11.788c111.05,28.761,138.851-2.07,188.581,28.726c48.046,29.756,27.007,62.342,73.664,97.236
				c75.627,56.563,155.154-4.588,209.204,42.725c51.125,44.752,52.302,158.77-1.473,220.993
				c-60.961,70.537-170.885,49.345-244.563,35.358c-15.501-2.942-93.799-19.385-175.32-79.555
				c-45.098-33.289-76.063-68.836-95.763-95.027c-4.624-5.204-11.838-11.509-21.362-12.523c-11.434-1.22-20.619,5.774-25.046,8.839
				C2735.499,1753.067,2695.096,1763.751,2679.922,1753.915z"/>
			<g>
				<g>
					
						<linearGradient id="SVGID_00000018917555112334188990000015579308876102839214_" gradientUnits="userSpaceOnUse" x1="2541.9653" y1="1998.4537" x2="3093.2656" y2="1998.4537">
						<stop  offset="0" style="stop-color:#FCB148"/>
						<stop  offset="0.0521" style="stop-color:#FDBA46"/>
						<stop  offset="0.1424" style="stop-color:#FFC244"/>
						<stop  offset="0.3183" style="stop-color:#FFC444"/>
						<stop  offset="0.4849" style="stop-color:#FDB946"/>
						<stop  offset="0.7754" style="stop-color:#F99C4D"/>
						<stop  offset="0.8658" style="stop-color:#F8924F"/>
						<stop  offset="1" style="stop-color:#F8924F"/>
					</linearGradient>
					<path style="fill:url(#SVGID_00000018917555112334188990000015579308876102839214_);" d="M2736.026,1671.048
						c0,0,128.998-37.62,185.811,26.692c8.845,10.013,17.806,24.759,24.678,57.306c24.11,114.193-40.058,154.868-31.298,258.483
						c1.004,11.869,12.205,125.806,94.949,195.831c39.349,33.301,84.184,47.621,83.08,77.145
						c-0.795,21.254-25.031,40.625-47.474,47.474c-42.938,13.104-67.993-23.083-124.619-35.605
						c-59.181-13.087-72.895,17.354-166.16,29.671c-31.043,4.1-172.739,22.813-207.7-35.605
						c-14.878-24.862,3.464-40.484,29.671-142.423c2.651-10.309,48.017-189.456,34.288-267.521
						c-1.19-6.768-5.198-34.202-4.016-70.594c0.292-9.007,1.428-19.062,4.016-31.063c0,0,10.963-50.854,50.517-94.522
						C2667.447,1680.049,2674.214,1673.521,2736.026,1671.048z"/>
				</g>
			</g>
			<g style="opacity:0.3;">
				<g>
					
						<linearGradient id="SVGID_00000112618680806958752240000017161506419157014672_" gradientUnits="userSpaceOnUse" x1="2892.9685" y1="2469.3201" x2="3168.5811" y2="1745.4214" gradientTransform="matrix(-1 0 0 1 5811.0015 0)">
						<stop  offset="0" style="stop-color:#FCB148"/>
						<stop  offset="0.0521" style="stop-color:#FDBA46"/>
						<stop  offset="0.1424" style="stop-color:#FFC244"/>
						<stop  offset="0.3183" style="stop-color:#FFC444"/>
						<stop  offset="0.4849" style="stop-color:#FDB946"/>
						<stop  offset="0.7754" style="stop-color:#F99C4D"/>
						<stop  offset="0.8658" style="stop-color:#F8924F"/>
						<stop  offset="1" style="stop-color:#F8924F"/>
					</linearGradient>
					<path style="fill:url(#SVGID_00000112618680806958752240000017161506419157014672_);" d="M2921.837,1697.74
						c13.001-0.146,23.147,50.054,24.678,57.305c24.11,114.193-40.058,154.868-31.298,258.483
						c1.004,11.869,12.205,125.806,94.949,195.831c39.349,33.302,84.184,47.622,83.08,77.146
						c-0.794,21.254-25.032,40.625-47.474,47.474c-42.938,13.104-67.992-23.083-124.62-35.605
						c-59.181-13.087-72.895,17.354-166.16,29.671c-31.043,4.1-172.739,22.813-207.7-35.605c-3.611-6.033-4.974-8.673-4.619-11.25
						c3.903-28.392,135.087-2.569,167.964-54.311c32.12-50.55-51.103-141.278-23.226-168.387
						c21.771-21.172,77.294,29.539,121.935,5.807c27.999-14.885,32.615-48.899,46.452-121.935
						C2880.092,1814.124,2902.1,1697.96,2921.837,1697.74z"/>
				</g>
			</g>
			<g>
				
					<linearGradient id="SVGID_00000002363418007285473040000012151079738056169149_" gradientUnits="userSpaceOnUse" x1="4839.9731" y1="1164.3184" x2="4848.3647" y2="940.7887" gradientTransform="matrix(-0.984 0.1784 0.1784 0.984 7329.1523 -244.2395)">
					<stop  offset="0" style="stop-color:#FFC444"/>
					<stop  offset="0.9964" style="stop-color:#F36F56"/>
				</linearGradient>
				<path style="fill:url(#SVGID_00000002363418007285473040000012151079738056169149_);" d="M2777.444,1587.377
					c-1.747,8.162-10.64,51.959,7.28,63.227c3.884,2.444,11.347,3.842,26.276,6.641c9.773,1.832,17.973,2.954,23.756,3.646
					c-0.836,7.344-3.309,19.298-11.785,30.172c-23.758,30.482-71.397,22.594-78.19,21.356
					c-23.962-4.363-47.542-11.766-53.237-16.292c-8.671-6.89-15.488-12.06-19.521-17.311c9.274-4.481,27.995-16.299,40.559-20.166
					c9.39-2.889,18.204-4.95,26.221-6.43c1.316-8.46,2.636-16.92,3.954-25.382
					C2754.321,1613.684,2765.883,1600.531,2777.444,1587.377z"/>
				
					<linearGradient id="SVGID_00000016754187513953395830000003153402484194923170_" gradientUnits="userSpaceOnUse" x1="4837.354" y1="966.9855" x2="4833.7617" y2="1256.397" gradientTransform="matrix(-0.984 0.1784 0.1784 0.984 7329.1523 -244.2395)">
					<stop  offset="0" style="stop-color:#FFC444"/>
					<stop  offset="0.9964" style="stop-color:#F36F56"/>
				</linearGradient>
				<path style="fill:url(#SVGID_00000016754187513953395830000003153402484194923170_);" d="M2778.284,1609.204
					c0,0-3.239,32.096-34.438,37.752c-27.935,5.065-48.964-62.441-34.668-79.902c4.769-5.824,16.542-11.365,26.748-11.073
					c7.178,0.208,31.423,9.441,34.807,33.7c4.828-5.087,10.845-6.548,13.811-4.419c3.764,2.702,1.749,10.56,1.29,12.339
					C2784.251,1603.769,2780.224,1607.592,2778.284,1609.204z"/>
			</g>
			<g>
				<path style="fill:#26264F;" d="M2728.609,2130.174l-86.993-215.429c-5.884-14.572,1.862-31.071,16.831-35.853l172.156-54.992
					c9.963-2.267,20.086,3.092,23.813,12.606l88.959,227.111c4.43,11.309-1.81,23.981-13.474,27.366l-176.427,51.193
					C2743.336,2145.118,2732.612,2139.941,2728.609,2130.174z"/>
			</g>
			
				<linearGradient id="SVGID_00000020383306171362526550000004399822599005842363_" gradientUnits="userSpaceOnUse" x1="3134.9302" y1="1866.1139" x2="3108.9695" y2="2021.8787" gradientTransform="matrix(-1 0 0 1 5811.0015 0)">
				<stop  offset="0" style="stop-color:#FFC444"/>
				<stop  offset="0.2327" style="stop-color:#FCB048"/>
				<stop  offset="0.9964" style="stop-color:#F36F56"/>
			</linearGradient>
			<path style="fill:url(#SVGID_00000020383306171362526550000004399822599005842363_);" d="M2739.669,2006.234
				c0,0-17.419-11.613-17.419-23.226s-11.613-29.032-17.419-29.032c-5.807,0-5.807,5.806,0,17.419
				c5.806,11.613-23.226,5.806-34.839-5.807s-23.226-11.613-17.419-5.807c9.181,9.181,11.613,17.419,11.613,17.419
				s11.613,46.452,62.419,43.549L2739.669,2006.234z"/>
			
				<linearGradient id="SVGID_00000150789531679189148000000002054609487371572375_" gradientUnits="userSpaceOnUse" x1="2722.2495" y1="1883.4861" x2="3071.7717" y2="1883.4861">
				<stop  offset="0" style="stop-color:#FCB148"/>
				<stop  offset="0.0521" style="stop-color:#FDBA46"/>
				<stop  offset="0.1424" style="stop-color:#FFC244"/>
				<stop  offset="0.3183" style="stop-color:#FFC444"/>
				<stop  offset="0.4849" style="stop-color:#FDB946"/>
				<stop  offset="0.7754" style="stop-color:#F99C4D"/>
				<stop  offset="0.8658" style="stop-color:#F8924F"/>
				<stop  offset="1" style="stop-color:#F8924F"/>
			</linearGradient>
			<path style="fill:url(#SVGID_00000150789531679189148000000002054609487371572375_);" d="M2861.604,1675.268
				c37.145-16.572,99.29,51.743,110.322,63.871c58.534,64.344,141.58,210.206,75.484,296.128
				c-55.141,71.682-203.186,87.474-325.161-5.807c5.807-11.613,11.613-23.226,17.419-34.838
				c12.667,4.593,95.947,33.42,156.774-11.613c12.904-9.553,32.745-24.243,34.838-46.452c3.902-41.383-58.981-54.127-87.096-116.128
				C2819.299,1765.549,2829.576,1689.557,2861.604,1675.268z"/>
		</g>
		<g>
			
				<linearGradient id="SVGID_00000142891056754778522350000013137386251873127603_" gradientUnits="userSpaceOnUse" x1="1585.5758" y1="2282.7473" x2="1657.6558" y2="2309.5198" gradientTransform="matrix(1 0 0 1 83.1186 0)">
				<stop  offset="0" style="stop-color:#444B8C"/>
				<stop  offset="0.9964" style="stop-color:#26264F"/>
			</linearGradient>
			<path style="fill:url(#SVGID_00000142891056754778522350000013137386251873127603_);" d="M2053.767,2483.335
				c-4.198,0-7.784-3.191-8.191-7.455c-7.213-75.686-31.89-147.597-69.484-202.489c-33.304-48.63-72.953-77.649-106.081-77.649
				c-0.038,0-0.072,0-0.11,0c-120.661,0.235-145.901,277.262-146.142,280.062c-0.39,4.533-4.362,7.89-8.913,7.501
				c-4.532-0.39-7.891-4.38-7.502-8.911c1.034-12.041,26.868-294.862,162.525-295.127c0.048,0,0.097,0,0.145,0
				c39.142,0,82.75,30.903,119.672,84.815c39.144,57.157,64.819,131.819,72.292,210.234c0.431,4.529-2.89,8.552-7.419,8.984
				C2054.292,2483.323,2054.028,2483.335,2053.767,2483.335z"/>
			
				<linearGradient id="SVGID_00000078024167175708515780000012438102892611988904_" gradientUnits="userSpaceOnUse" x1="1383.6802" y1="2530.4705" x2="1584.4642" y2="2867.1697" gradientTransform="matrix(1 0 0 1 83.1186 0)">
				<stop  offset="0" style="stop-color:#FCB148"/>
				<stop  offset="0.0521" style="stop-color:#FDBA46"/>
				<stop  offset="0.1424" style="stop-color:#FFC244"/>
				<stop  offset="0.3183" style="stop-color:#FFC444"/>
				<stop  offset="0.4849" style="stop-color:#FDB946"/>
				<stop  offset="0.7754" style="stop-color:#F99C4D"/>
				<stop  offset="0.8658" style="stop-color:#F8924F"/>
				<stop  offset="1" style="stop-color:#F8924F"/>
			</linearGradient>
			<path style="fill:url(#SVGID_00000078024167175708515780000012438102892611988904_);" d="M1551.089,3053.481l158.837,80.416
				l96.239-295.326l-158.575-395.928l-44.965,11.025l-68.226,568.624C1532.854,3035.162,1539.524,3047.625,1551.089,3053.481z"/>
			
				<linearGradient id="SVGID_00000145769027950319807740000017056389167729719683_" gradientUnits="userSpaceOnUse" x1="1414.724" y1="2511.958" x2="1615.5079" y2="2848.6572" gradientTransform="matrix(1 0 0 1 83.1186 0)">
				<stop  offset="0" style="stop-color:#FFC444"/>
				<stop  offset="0.9964" style="stop-color:#F36F56"/>
			</linearGradient>
			<path style="opacity:0.35;fill:url(#SVGID_00000145769027950319807740000017056389167729719683_);" d="M1806.165,2838.57
				l-158.575-395.927l-26.522,6.503c-3.677,52.862-2.062,96.37,0.436,128.046c10.63,134.801,45.935,172.313,28.832,266.353
				c-14.221,78.193-45.276,88.806-42.561,141.414c2.957,57.296,42.919,105.275,90.431,143.005l11.72,5.933L1806.165,2838.57z"/>
			
				<linearGradient id="SVGID_00000111886340432625844500000013025005844982129339_" gradientUnits="userSpaceOnUse" x1="1733.2095" y1="2666.1077" x2="2298.4929" y2="3101.6548" gradientTransform="matrix(1 0 0 1 83.1186 0)">
				<stop  offset="0" style="stop-color:#FCB148"/>
				<stop  offset="0.0521" style="stop-color:#FDBA46"/>
				<stop  offset="0.1424" style="stop-color:#FFC244"/>
				<stop  offset="0.3183" style="stop-color:#FFC444"/>
				<stop  offset="0.4849" style="stop-color:#FDB946"/>
				<stop  offset="0.7754" style="stop-color:#F99C4D"/>
				<stop  offset="0.8658" style="stop-color:#F8924F"/>
				<stop  offset="1" style="stop-color:#F8924F"/>
			</linearGradient>
			<polygon style="fill:url(#SVGID_00000111886340432625844500000013025005844982129339_);" points="1647.59,2442.642 
				2239.831,2442.643 2435.835,3075.406 1709.926,3133.897 			"/>
			
				<linearGradient id="SVGID_00000109741656553671649320000010526575778400059830_" gradientUnits="userSpaceOnUse" x1="1844.2866" y1="2158.5247" x2="1901.9504" y2="2526.1326" gradientTransform="matrix(1 0 0 1 83.1186 0)">
				<stop  offset="0" style="stop-color:#444B8C"/>
				<stop  offset="0.9964" style="stop-color:#26264F"/>
			</linearGradient>
			<path style="fill:url(#SVGID_00000109741656553671649320000010526575778400059830_);" d="M1831.057,2496.876
				c-3.739,0-7.123-2.562-8.014-6.359c-1.683-7.176-40.594-176.726,14.271-259.936c15.725-23.848,37.695-38.409,65.298-43.278
				c141.83-24.99,229.152,279.632,232.801,292.611c1.23,4.38-1.322,8.928-5.702,10.158c-4.384,1.235-8.928-1.323-10.159-5.702
				c-0.855-3.033-86.812-303.313-214.078-280.842c-23.291,4.107-41.087,15.922-54.406,36.12
				c-51,77.349-12.381,245.417-11.985,247.107c1.039,4.428-1.71,8.861-6.139,9.901
				C1832.313,2496.806,1831.679,2496.876,1831.057,2496.876z"/>
			<g style="opacity:0.35;">
				
					<linearGradient id="SVGID_00000124131748365549607830000013948474754634096281_" gradientUnits="userSpaceOnUse" x1="1740.5164" y1="2656.6228" x2="2305.8003" y2="3092.1702" gradientTransform="matrix(1 0 0 1 83.1186 0)">
					<stop  offset="0" style="stop-color:#FFC444"/>
					<stop  offset="0.9964" style="stop-color:#F36F56"/>
				</linearGradient>
				<path style="fill:url(#SVGID_00000124131748365549607830000013948474754634096281_);" d="M2239.831,2442.642h-293.806
					c-14.49,14.739-24.774,31.726-25.756,50.781c-4.617,89.526,201.196,118.938,221.045,241.639
					c14.319,88.514-73.786,190.644-152.397,236.147c-82.824,47.94-138.943,23.662-194.959,76.885
					c-24.613,23.385-39.599,52.627-48.512,82.939l690.39-55.628L2239.831,2442.642z"/>
			</g>
			
				<linearGradient id="SVGID_00000144330133437402680910000008252151485199774645_" gradientUnits="userSpaceOnUse" x1="1716.9365" y1="2486.5825" x2="1726.217" y2="2490.0295" gradientTransform="matrix(1 0 0 1 83.1186 0)">
				<stop  offset="0" style="stop-color:#444B8C"/>
				<stop  offset="0.9964" style="stop-color:#26264F"/>
			</linearGradient>
			
				<circle style="fill:url(#SVGID_00000144330133437402680910000008252151485199774645_);" cx="1831.115" cy="2498.119" r="23.022"/>
			
				<linearGradient id="SVGID_00000085230112486244887680000007974984209203211165_" gradientUnits="userSpaceOnUse" x1="2017.1711" y1="2484.447" x2="2026.4515" y2="2487.894" gradientTransform="matrix(1 0 0 1 83.1186 0)">
				<stop  offset="0" style="stop-color:#444B8C"/>
				<stop  offset="0.9964" style="stop-color:#26264F"/>
			</linearGradient>
			<circle style="fill:url(#SVGID_00000085230112486244887680000007974984209203211165_);" cx="2131.35" cy="2495.984" r="23.022"/>
		</g>
	</g>
</g>
</svg>
