<?xml version="1.0" encoding="utf-8"?>
<!-- Generator: Adobe Illustrator 27.5.0, SVG Export Plug-In . SVG Version: 6.00 Build 0)  -->
<svg version="1.1" xmlns="http://www.w3.org/2000/svg" xmlns:xlink="http://www.w3.org/1999/xlink" x="0px" y="0px"
	 viewBox="0 0 3710 3710" style="enable-background:new 0 0 3710 3710;" xml:space="preserve">
<g id="Background">
	<g>
		<g>
			<rect style="fill:#FFFFFF;" width="3710" height="3710"/>
		</g>
	</g>
</g>
<g id="Illustration">
	<g>
		<path style="fill:#F4F7FA;" d="M2565.697,648.861c94.726,132.612-12.416,350.352,127.113,449.369
			c135.821,96.386,299.723-65.67,427.64,17.183c189.76,122.907,161.359,694.738-110.424,1052.702
			c-81.734,107.652-150.53,149.927-179.921,271.013c-63.114,260.002,169.91,411.822,127.224,540.535
			c-96.114,289.816-1618.445,548.174-2239.426-313.247c-290.023-402.319-338.937-987.163-88.297-1434.383
			C1082.509,423.913,2353.148,351.304,2565.697,648.861z"/>
		<g>
			<path style="fill:#D8DEE8;" d="M1122.818,2392.19c47.918,6.64,128.588,17.819,210.064-23.56
				c148.127-75.229,202.762-275.338,192.03-423.678c-9.217-127.417-82.606-241.365-229.38-469.262
				c-138.232-214.635-198.424-259.809-180.06-343.337c26.181-119.078,175.005-147.745,184.718-291.241
				c1.165-17.219,5.168-76.359-31.985-116.506c-63.599-68.725-203.163-33.557-278.735,5.054
				c-72.894,37.244-171.775,121.39-174.728,225.048c-2.141,75.103,47.893,96.646,31.678,159.13
				c-16.314,62.867-71.884,60.021-137.76,145.415c-26.318,34.115-79.145,102.593-75.908,184.059
				c4.185,105.336,98.314,137.03,81.851,215.393c-11.895,56.619-64.927,58.585-91.4,118.262
				c-34.852,78.565,14.592,170.885,56.765,247.161C729.628,2113.948,863.606,2356.269,1122.818,2392.19z"/>
			<path style="opacity:0.16;fill:#FFFFFF;" d="M1222.801,743.798c27.466,50.293-159.288,119.906-210.85,309.103
				c-55.478,203.567,79.398,421.385,141.728,522.046c106.345,171.744,181.85,184.299,227.38,340.721
				c18.02,61.909,55.561,190.886-14.694,308.768c-6.527,10.952-81.119,131.97-208.742,143.14
				c-144.759,12.671-247.681-125.62-336.367-244.777c-53.588-72.002-160.638-215.833-110.591-290.16
				c30.594-45.437,112.85-54.438,169.823-40.468c81.318,19.936,122.272,89.392,135.21,79.988
				c11.652-8.47-10.365-72.969-54.042-134.42c-87.364-122.914-172.068-107.966-230.993-211.163
				c-7.143-12.508-62.297-112.439-19.82-201.626c24.498-51.438,82.109-100.64,128.474-90.475
				c52.438,11.496,67.858,93.968,83.663,89.372c15.113-4.394,10.197-82.468-5.933-158.919
				c-23.7-112.334-51.859-127.564-50.082-190.307c2.711-95.727,71.168-162.957,81.148-172.481
				C1041.624,712.899,1199.318,700.799,1222.801,743.798z"/>
		</g>
		<g>
			<linearGradient id="SVGID_1_" gradientUnits="userSpaceOnUse" x1="2486.0002" y1="1532.5616" x2="1238.0598" y2="1179.4205">
				<stop  offset="0" style="stop-color:#311944"/>
				<stop  offset="1" style="stop-color:#A03976"/>
			</linearGradient>
			<path style="fill:url(#SVGID_1_);" d="M1521.404,1442.639c39.966,20.291,90.176,1.66,112.148-41.614
				c21.972-43.275,7.383-94.805-32.582-115.097c-2.071-1.052-4.183-1.935-6.303-2.781c7.425-23.945,13.023-48.078,16.778-72.22
				c2.291-0.007,4.59-0.045,6.926-0.254c45.597-4.065,81.785-45.963,80.831-93.587c-0.954-47.623-38.692-82.935-84.289-78.871
				c-2.384,0.214-4.725,0.59-7.052,1.003c-4.763-23.6-11.289-46.655-19.522-68.967c2.097-1.227,4.184-2.495,6.223-3.924
				c39.01-27.329,51.483-81.272,27.857-120.482c-23.625-39.211-74.403-48.84-113.413-21.51c-1.999,1.401-3.88,2.914-5.738,4.449
				c-15.409-17.033-32.307-32.818-50.591-47.225c1.285-2.108,2.544-4.242,3.682-6.484c21.971-43.274,50.683-90.546,10.404-110.208
				c-93.177-45.487-133.161-6.548-155.133,36.726c-1.138,2.242-2.119,4.518-3.062,6.799c-22.42-6.26-45.135-10.588-67.98-12.977
				c0.144-2.406,0.254-4.816,0.207-7.257c-0.956-47.621,13.175-73.393-32.595-74.283c-99.807-1.94-133.483,41.381-132.527,89.002
				c0.05,2.489,0.258,4.923,0.504,7.34c-22.872,6.52-45.334,14.855-67.199,24.937c-1.039-2.124-2.117-4.235-3.352-6.286
				c-23.625-39.21-74.402-48.839-113.413-21.507c-39.012,27.332-51.483,81.273-27.857,120.483c1.21,2.009,2.536,3.887,3.882,5.741
				c-17.276,17.277-33.454,36.038-48.404,56.163c-1.933-1.213-3.894-2.398-5.965-3.449c-39.965-20.291-90.175-1.66-112.147,41.615
				c-21.972,43.274-7.384,94.805,32.582,115.096c2.07,1.052,4.184,1.935,6.304,2.781c-7.426,23.945-13.024,48.078-16.779,72.22
				c-2.291,0.007-4.59,0.045-6.924,0.251c-45.598,4.067-81.787,45.966-80.833,93.59c0.955,47.623,38.694,82.933,84.291,78.868
				c2.382-0.212,4.723-0.587,7.05-1.002c4.763,23.601,11.288,46.655,19.522,68.968c-2.097,1.227-4.185,2.495-6.223,3.924
				c-39.01,27.329-51.482,81.273-27.858,120.483c23.626,39.21,101.842,57.427,140.851,30.096c1.999-1.401-23.559-11.5-21.701-13.036
				c15.409,17.033,32.308,32.819,50.591,47.225c-1.284,2.108-2.544,4.243-3.682,6.485c-21.971,43.275-7.384,94.806,32.582,115.096
				c39.966,20.291,90.176,1.66,112.148-41.615c1.138-2.242,2.119-4.518,3.062-6.799c22.42,6.26,45.136,10.588,67.98,12.977
				c-0.142,2.405-0.254,4.816-0.205,7.258c0.956,47.621,38.693,82.933,84.291,78.868c45.597-4.065,81.786-45.966,80.831-93.587
				c-0.05-2.488-0.258-4.922-0.505-7.34c22.873-6.519,45.336-14.855,67.199-24.937c1.039,2.124,2.118,4.235,3.353,6.284
				c23.625,39.21,74.401,48.841,113.413,21.509c39.011-27.333,51.483-81.273,27.858-120.485c-1.211-2.007-2.536-3.885-3.883-5.739
				c17.276-17.277,33.454-36.038,48.404-56.163C1517.374,1440.403,1519.334,1441.588,1521.404,1442.639z M1023.193,1448.961
				c-145.106-73.674-198.069-260.769-118.295-417.89c79.773-157.122,262.074-224.768,407.18-151.094
				c145.107,73.674,198.069,260.769,118.296,417.889C1350.601,1454.988,1168.3,1522.635,1023.193,1448.961z"/>
			
				<linearGradient id="SVGID_00000054224340752997100590000007078722476676970169_" gradientUnits="userSpaceOnUse" x1="2482.7283" y1="1544.1189" x2="1234.7854" y2="1190.9771">
				<stop  offset="0" style="stop-color:#311944"/>
				<stop  offset="1" style="stop-color:#A03976"/>
			</linearGradient>
			<path style="fill:url(#SVGID_00000054224340752997100590000007078722476676970169_);" d="M1618.37,1210.675
				c45.597-4.066,81.785-45.966,80.831-93.589c-0.954-47.622-38.692-82.935-84.289-78.869c-2.384,0.212-4.725,0.589-7.052,1.002
				c-4.762-23.601-11.289-46.653-19.522-68.967c2.097-1.226,4.184-2.495,6.223-3.924c39.01-27.33,87.272-93.369,59.75-129.948
				c-52.237-69.425-106.296-39.374-145.306-12.044c-1.999,1.401-3.88,2.913-5.737,4.447c-15.409-17.033-32.308-32.816-50.592-47.224
				c1.285-2.108,2.544-4.242,3.682-6.483c11.958-23.553,13.013-49.52,5.116-71.595c-37.68,66.318-74.852,132.915-111.358,199.873
				c115.761,84.828,152.616,251.995,80.258,394.513c-61.317,120.77-183.204,188.584-302.218,180.086
				c-5.309,13.768-10.522,27.611-16.207,41.246c-15.427,37.004-32.953,73.245-50.502,109.439c11.037,2.08,22.122,3.718,33.237,4.882
				c-0.142,2.407-0.254,4.818-0.205,7.259c0.956,47.622,29.869,88.084,112.506,83.7c45.714-2.424,53.57-50.796,52.615-98.419
				c-0.05-2.488-0.257-4.922-0.504-7.339c22.872-6.519,45.335-14.856,67.198-24.938c1.039,2.125,2.118,4.235,3.354,6.284
				c23.625,39.212,105.583,55.871,144.594,28.539c39.011-27.333,20.3-88.303-3.324-127.514c-1.211-2.009-2.536-3.887-3.883-5.741
				c17.275-17.277,33.454-36.038,48.404-56.161c1.934,1.214,3.894,2.399,5.964,3.447c39.966,20.293,90.176,1.66,112.148-41.615
				c21.971-43.273,7.384-94.806-32.582-115.095c-2.072-1.052-4.184-1.935-6.304-2.78c7.425-23.945,13.023-48.08,16.778-72.219
				C1613.735,1210.921,1616.034,1210.882,1618.37,1210.675z"/>
			
				<linearGradient id="SVGID_00000137096700682364909470000011907183924264321937_" gradientUnits="userSpaceOnUse" x1="1205.3538" y1="743.9305" x2="1224.8689" y2="2319.8032">
				<stop  offset="0" style="stop-color:#FF9085"/>
				<stop  offset="1" style="stop-color:#FB6FBB"/>
			</linearGradient>
			<path style="fill:url(#SVGID_00000137096700682364909470000011907183924264321937_);" d="M1564.389,1447.527
				c39.966,20.291,90.176,1.66,112.148-41.615c21.971-43.274,7.384-94.804-32.582-115.097c-2.07-1.051-4.183-1.935-6.303-2.78
				c7.425-23.946,13.023-48.078,16.778-72.221c2.291-0.006,4.589-0.044,6.925-0.253c45.597-4.065,81.785-45.964,80.831-93.587
				c-0.954-47.624-38.692-82.935-84.289-78.871c-2.384,0.213-4.724,0.589-7.052,1.003c-4.763-23.601-11.289-46.655-19.522-68.967
				c2.098-1.228,4.184-2.496,6.223-3.924c39.01-27.329,51.483-81.273,27.857-120.483c-23.625-39.21-74.402-48.839-113.413-21.509
				c-1.999,1.401-3.88,2.913-5.739,4.448c-15.407-17.033-32.307-32.817-50.591-47.224c1.285-2.108,2.544-4.244,3.682-6.485
				c21.971-43.274,7.384-94.805-32.581-115.096c-39.966-20.292-90.176-1.66-112.147,41.614c-1.139,2.242-2.12,4.519-3.063,6.799
				c-22.42-6.26-45.135-10.588-67.979-12.977c0.142-2.407,0.253-4.816,0.205-7.258c-0.956-47.621-38.693-82.933-84.291-78.868
				c-45.597,4.064-81.786,45.965-80.831,93.586c0.05,2.49,0.258,4.922,0.504,7.339c-22.872,6.521-45.334,14.856-67.199,24.938
				c-1.039-2.124-2.117-4.235-3.351-6.286c-23.626-39.21-74.403-48.839-113.414-21.508c-39.011,27.333-51.482,81.274-27.857,120.484
				c1.211,2.008,2.536,3.887,3.883,5.741c-17.275,17.277-33.455,36.037-48.405,56.163c-1.933-1.213-3.893-2.398-5.965-3.449
				c-39.965-20.292-90.175-1.66-112.146,41.615c-21.972,43.274-7.385,94.805,32.581,115.096c2.071,1.051,4.185,1.935,6.304,2.78
				c-7.425,23.945-13.024,48.078-16.777,72.22c-2.291,0.007-4.591,0.045-6.925,0.252c-45.598,4.067-81.787,45.965-80.831,93.59
				c0.954,47.623,38.693,82.932,84.29,78.868c2.382-0.212,4.723-0.587,7.05-1.002c4.763,23.601,11.289,46.655,19.522,68.968
				c-2.097,1.227-4.184,2.495-6.222,3.924c-39.01,27.33-51.483,81.273-27.857,120.483c23.625,39.211,74.402,48.839,113.412,21.51
				c2-1.402,3.881-2.914,5.738-4.449c15.409,17.033,32.308,32.819,50.591,47.225c-1.284,2.108-2.544,4.243-3.682,6.485
				c-21.971,43.275-7.384,94.805,32.582,115.096c39.966,20.291,90.175,1.66,112.147-41.615c1.138-2.241,2.119-4.518,3.062-6.799
				c22.42,6.26,45.136,10.588,67.979,12.976c-0.142,2.407-0.254,4.817-0.205,7.259c0.956,47.621,38.693,82.933,84.29,78.868
				c45.597-4.065,81.787-45.965,80.831-93.587c-0.049-2.489-0.257-4.922-0.505-7.34c22.873-6.519,45.335-14.855,67.199-24.937
				c1.039,2.123,2.118,4.235,3.353,6.283c23.625,39.211,74.401,48.842,113.412,21.51c39.011-27.332,51.482-81.273,27.859-120.485
				c-1.211-2.007-2.537-3.886-3.884-5.739c17.276-17.276,33.455-36.038,48.406-56.162
				C1560.359,1445.291,1562.319,1446.476,1564.389,1447.527z M1066.18,1453.849c-145.107-73.674-198.07-260.768-118.296-417.89
				c79.774-157.12,262.074-224.767,407.181-151.093c145.107,73.674,198.069,260.769,118.296,417.89
				C1393.586,1459.876,1211.286,1527.522,1066.18,1453.849z"/>
		</g>
		<g>
			
				<linearGradient id="SVGID_00000151524888569973996820000012990549358315816875_" gradientUnits="userSpaceOnUse" x1="-893.5188" y1="1712.1509" x2="-872.331" y2="1981.8124" gradientTransform="matrix(-1 0 0 1 1460.9358 0)">
				<stop  offset="0" style="stop-color:#311944"/>
				<stop  offset="1" style="stop-color:#A03976"/>
			</linearGradient>
			<path style="fill:url(#SVGID_00000151524888569973996820000012990549358315816875_);" d="M2313.133,1846.637
				c0,0,85.289,38.763,86.681,44.951c1.393,6.188-54.849-2.074-77.809-1.182c-22.96,0.893-41.847-5.893-39.77-15.618
				c2.08-9.726,10.116-34.186,10.116-34.186L2313.133,1846.637z"/>
			
				<linearGradient id="SVGID_00000065063104141614416290000015612865433340020130_" gradientUnits="userSpaceOnUse" x1="-838.8206" y1="1862.2805" x2="-842.6727" y2="1582.9954" gradientTransform="matrix(-1 0 0 1 1460.9358 0)">
				<stop  offset="0" style="stop-color:#FFC444"/>
				<stop  offset="0.9964" style="stop-color:#F36F56"/>
			</linearGradient>
			<path style="fill:url(#SVGID_00000065063104141614416290000015612865433340020130_);" d="M2316.253,1815.179l-5.188,38.4
				c0,0-13.502,4.807-22.573-0.876l-3.869-42.116L2316.253,1815.179z"/>
			
				<linearGradient id="SVGID_00000043431372871064045480000011100094268769352847_" gradientUnits="userSpaceOnUse" x1="-493.1223" y1="1680.6958" x2="-471.935" y2="1950.3503" gradientTransform="matrix(-1 0 0 1 1460.9358 0)">
				<stop  offset="0" style="stop-color:#311944"/>
				<stop  offset="1" style="stop-color:#A03976"/>
			</linearGradient>
			<path style="fill:url(#SVGID_00000043431372871064045480000011100094268769352847_);" d="M1914.598,1816.1l-9.92,15.925
				c-2.775,4.454-3.602,9.815-2.272,14.892c3.469,13.244,10.398,39.053,13.419,45.782c4.114,9.168,59.307,14.613,59.307,14.613
				s4.921-6.925-6.538-15.292c-11.459-8.365-18.825-9.681-22.869-22.026c-4.043-12.343-6.742-47.262-6.742-47.262L1914.598,1816.1z"
				/>
			
				<linearGradient id="SVGID_00000159435156114439620870000003566271813004928925_" gradientUnits="userSpaceOnUse" x1="-471.8753" y1="1857.2203" x2="-475.7275" y2="1577.9254" gradientTransform="matrix(-1 0 0 1 1460.9358 0)">
				<stop  offset="0" style="stop-color:#FFC444"/>
				<stop  offset="0.9964" style="stop-color:#F36F56"/>
			</linearGradient>
			<path style="fill:url(#SVGID_00000159435156114439620870000003566271813004928925_);" d="M1955.89,1775.628
				c-3.624,2.889-21.35,56.693-21.35,56.693s-5.738,7.338-16.638-3.491c-10.899-10.829-4.933-4.857-4.933-4.857l2.044-52.92
				L1955.89,1775.628z"/>
			
				<linearGradient id="SVGID_00000124861995334387296220000007074204589574568860_" gradientUnits="userSpaceOnUse" x1="-905.4735" y1="1409.8414" x2="-698.9753" y2="1409.8414" gradientTransform="matrix(-1 0 0 1 1460.9358 0)">
				<stop  offset="0" style="stop-color:#444B8C"/>
				<stop  offset="0.9964" style="stop-color:#3E4177"/>
			</linearGradient>
			<path style="fill:url(#SVGID_00000124861995334387296220000007074204589574568860_);" d="M2363.179,1043.696
				c4.5,114.546,4.683,238.996-1.908,371.947c-7.42,149.712-22.333,288.084-41.126,413.518c-6.986,0.223-14.328,0.259-21.997,0.045
				c-5.179-0.144-10.196-0.397-15.046-0.731c-9.752-26.009-21.281-60.213-31.603-101.067c-10.853-42.959-17.4-81.492-22.064-118.341
				c-16.424-129.74,2.824-141.059-10.506-237.209c-11.805-85.155-28.592-88.48-48.299-209.381
				c-21.382-131.182-5.465-150.862,2.277-157.971C2205.859,974.237,2283.264,994.843,2363.179,1043.696z"/>
			
				<linearGradient id="SVGID_00000089568880204500323960000006444422958494032552_" gradientUnits="userSpaceOnUse" x1="-905.4739" y1="1409.8502" x2="-698.9767" y2="1409.8502" gradientTransform="matrix(-1 0 0 1 1460.9358 0)">
				<stop  offset="0" style="stop-color:#444B8C"/>
				<stop  offset="0.9964" style="stop-color:#3E4177"/>
			</linearGradient>
			<path style="opacity:0.3;fill:url(#SVGID_00000089568880204500323960000006444422958494032552_);" d="M2172.906,1004.505
				c31.429-28.869,103.308-11.392,179.224,32.668c-87.336,94.359-96.856,155.57-86.386,195.287
				c11.833,44.888,47.808,57.817,47.671,106.901c-0.169,60.318-54.607,76.297-53.45,140.125
				c0.765,42.207,24.687,41.768,30.336,93.899c6.684,61.68-24.568,82.934-14.445,128.57c4.354,19.633,16.784,45.287,52.183,71.714
				c-2.553,18.74-5.169,37.292-7.897,55.493c-6.984,0.221-14.326,0.26-21.995,0.042c-5.179-0.143-10.198-0.395-15.045-0.73
				c-9.753-26.009-21.282-60.211-31.604-101.066c-10.853-42.96-17.4-81.492-22.064-118.342
				c-16.423-129.739,2.824-141.059-10.506-237.209c-11.805-85.155-28.592-88.482-48.298-209.382
				C2149.249,1031.292,2165.165,1011.612,2172.906,1004.505z"/>
			
				<linearGradient id="SVGID_00000163755673875579424450000016038635762347969205_" gradientUnits="userSpaceOnUse" x1="-848.1454" y1="1389.4866" x2="-432.4431" y2="1389.4866" gradientTransform="matrix(-1 0 0 1 1460.9358 0)">
				<stop  offset="0" style="stop-color:#444B8C"/>
				<stop  offset="0.9964" style="stop-color:#3E4177"/>
			</linearGradient>
			<path style="fill:url(#SVGID_00000163755673875579424450000016038635762347969205_);" d="M2309.081,1041.772
				c-75.199,110.032-156.31,246.972-228.847,410.884c-54.817,123.868-94.573,240.169-123.763,343.82
				c-3.949,1.829-13.267,5.477-25.173,3.903c-16.239-2.148-25.972-12.514-28.516-15.407c-11.88-74.302-10.57-137.231-6.538-182.648
				c2.582-29.078,7.151-77.504,25.686-137.284c20.76-66.963,35.033-70.726,62.118-141.571
				c28.112-73.534,21.302-91.884,48.223-183.907c11.06-37.803,29.573-94.059,60.121-161.351
				C2164.623,999.396,2236.853,1020.585,2309.081,1041.772z"/>
			
				<linearGradient id="SVGID_00000168809875764873673220000011575369621654171319_" gradientUnits="userSpaceOnUse" x1="2285.1702" y1="1367.3944" x2="2437.2173" y2="506.7535">
				<stop  offset="0" style="stop-color:#311944"/>
				<stop  offset="1" style="stop-color:#893976"/>
			</linearGradient>
			<path style="fill:url(#SVGID_00000168809875764873673220000011575369621654171319_);" d="M2680.415,1097.308
				c3.877,27.522-56.415,73.051-111.817,68.181c-75.578-6.644-138.667-106.781-145.393-186.318
				c-1.44-17.031-0.383-34.159-3.852-34.669c-8.805-1.296-31.416,103.136-49.165,191.674c-14.27,5.222-35.902,10.769-60.624,6.717
				c-40.459-6.628-45.277-31.764-90.529-48.155c-26.402-9.561-52.272-9.584-104.012-9.628c-58.406-0.052-60.015,7.151-71.265,1.926
				c0,0-2.782-1.526-5.176-3.245c-41.594-29.86,77.398-256.829,43.138-466.243c-3.808-23.276-9.646-47.175,3.354-70.474
				c33.594-60.206,166.364-68.694,248.62-29.073c22.545,10.86,60.304,34.62,94.026,59.66c13.479,10.008,27.496,21.21,42.118,33.983
				c45.291,39.564,75.272,75.861,80.493,82.463c77.583,98.101-38.69,281.327,42.813,356.838
				C2628.638,1083.83,2677.062,1073.51,2680.415,1097.308z"/>
			
				<linearGradient id="SVGID_00000180355561164156399200000004481496222472220038_" gradientUnits="userSpaceOnUse" x1="-918.8897" y1="651.0071" x2="-918.8897" y2="484.1561" gradientTransform="matrix(-1 0 0 1 1460.9358 0)">
				<stop  offset="0" style="stop-color:#FFC444"/>
				<stop  offset="0.9964" style="stop-color:#F36F56"/>
			</linearGradient>
			<path style="fill:url(#SVGID_00000180355561164156399200000004481496222472220038_);" d="M2435.73,496.251
				c0,0-21.354,24.246-44.305,36.812c-20.743,11.355-66.467-7.773-77.047-10.018c-10.579-2.247,2.115,26.24,22.076,45.874
				c19.958,19.633,85.931,64.536,103.725,65.287c17.793,0.753-2.865-14.83-13.792-32.975c-10.927-18.145,4.472-55.658,18.262-67.217
				C2458.441,522.453,2435.73,496.251,2435.73,496.251z"/>
			<g>
				
					<linearGradient id="SVGID_00000085966526980688499080000011724262238742036919_" gradientUnits="userSpaceOnUse" x1="-2103.7566" y1="-720.0057" x2="-2174.6106" y2="-899.962" gradientTransform="matrix(-0.8789 -0.477 -0.477 0.8789 160.8578 210.4266)">
					<stop  offset="0" style="stop-color:#444B8C"/>
					<stop  offset="0.9964" style="stop-color:#3E4177"/>
				</linearGradient>
				<path style="fill:url(#SVGID_00000085966526980688499080000011724262238742036919_);" d="M2484.798,515.219
					c24.231-1.84,48.713-31.682,43.768-44.708c-1.414-3.723-4.562-4.314-51.996-12.128c-23.556-3.879-35.33-5.479-43.47,1.03
					c-4.97,3.973-8.848,11.058-10.073,17.75c-0.629,3.445-0.662,8.187-0.072,17.634c0.525,8.384,0.37,8.017,0.588,10.493
					c0.523,5.948,2.145,16.412,7.944,30.916c2.416-2.649,5.615-5.813,9.653-8.931c1.553-1.2,7.7-5.846,14.689-8.661
					C2467.857,513.77,2476.934,515.816,2484.798,515.219z"/>
				
					<linearGradient id="SVGID_00000034064202420241575820000000089771120100350649_" gradientUnits="userSpaceOnUse" x1="-1036.8309" y1="602.9218" x2="-958.8226" y2="451.2388" gradientTransform="matrix(-1 0 0 1 1460.9358 0)">
					<stop  offset="0" style="stop-color:#FFC444"/>
					<stop  offset="0.9964" style="stop-color:#F36F56"/>
				</linearGradient>
				<path style="fill:url(#SVGID_00000034064202420241575820000000089771120100350649_);" d="M2422.632,520.041
					c0,0,1.079,23.185,22.925,33.364c19.562,9.113,45.523-31.727,38.381-47.323c-2.382-5.203-9.762-10.861-17.322-12.615
					c-4.466-1.036-6.656-0.143-13.92-1.977c-6.698-1.691-8-3.25-10.587-2.728c-3.236,0.651-7.36,4.333-10.443,18.742
					c-1.605-5.623-5.165-9.392-9.021-9.623c-0.615-0.037-2.396,0.135-3.856,1.073
					C2413.498,502.347,2414.531,510.944,2422.632,520.041z"/>
			</g>
			
				<linearGradient id="SVGID_00000134244096241376488750000001881914439800664243_" gradientUnits="userSpaceOnUse" x1="3211.7432" y1="1173.2921" x2="3364.7534" y2="307.1984" gradientTransform="matrix(0.7739 -0.6334 0.6334 0.7739 -844.3308 2468.3906)">
				<stop  offset="0" style="stop-color:#311944"/>
				<stop  offset="1" style="stop-color:#893976"/>
			</linearGradient>
			<path style="fill:url(#SVGID_00000134244096241376488750000001881914439800664243_);" d="M2169.071,1104.536
				c-35.513,8.32-116.269,21.286-181.061-23.554c-107.864-74.647-152.665-225.562-135.279-303.912
				c31.695-142.838,252.366-265.449,286.571-265.438c88.46,0.029,173.759,169.203,133.389,226.844
				c-13.216,18.87-48.629-11.607-91.685,9.163c-14.021,6.764-143.748,26.143-151.361,109.584
				c-5.328,58.4,81.799,174.072,148.638,209.908C2175.211,1079.599,2172.141,1092.068,2169.071,1104.536z"/>
		</g>
		<g>
			<g>
				<defs>
					<circle id="SVGID_00000141430768985045785220000013623032209448954274_" cx="1933.614" cy="2048.529" r="1023.996"/>
				</defs>
				<clipPath id="SVGID_00000044155948782360514920000010655358262168716712_">
					<use xlink:href="#SVGID_00000141430768985045785220000013623032209448954274_"  style="overflow:visible;"/>
				</clipPath>
				<g style="clip-path:url(#SVGID_00000044155948782360514920000010655358262168716712_);">
					
						<linearGradient id="SVGID_00000111187638181402365740000004251259794417328033_" gradientUnits="userSpaceOnUse" x1="2207.8494" y1="2705.3828" x2="1477.3107" y2="952.0929">
						<stop  offset="0.0036" style="stop-color:#E38DDD"/>
						<stop  offset="1" style="stop-color:#9571F6"/>
					</linearGradient>
					<path style="fill:url(#SVGID_00000111187638181402365740000004251259794417328033_);" d="M2970.148,2049.402
						c0,219.43-68.915,422.985-185.764,590.536c-0.46,0.689-2.107,1.349-2.107,2.039v0.028
						c-183.344,268.64-497.507,442.687-849.923,442.687c-28.823,0-56.432-1.347-84.654-5.247c-0.029,0-0.029,0-0.029,0
						c-0.115,0-0.173,1.716-0.288,1.716c-13.895-1.148-27.675-1.683-41.4-3.377c-4.88-0.574-9.761-0.77-14.613-1.458
						c-4.307-0.574-8.585-0.959-12.861-1.619c-3.733-0.546-7.436-1.01-11.111-1.614c-0.833-0.144-1.666-0.233-2.498-0.348
						c-9.044-1.492-18.059-3.044-27.045-4.767c-0.058,0-0.086-0.015-0.144-0.015c-479.141-91.528-841.176-512.755-841.176-1018.569
						c0-106.945,15.537-210.125,45.625-307.194c4.708-15.216,10.573-30.256,14.474-45.157v-0.029
						c11.703-24.834,19.547-49.209,30.313-73.124c4.335-9.561,9.128-19.064,13.693-28.48
						c25.236-51.736,54.807-101.06,87.966-147.542c3.015-4.219,6.144-8.412,9.216-12.603c12.287-16.709,25.107-33.016,38.4-48.951
						c19.896-23.886,40.847-46.883,62.781-68.875c57.104-57.306,120.88-107.979,190.043-150.728
						c21.389-13.236,43.329-25.724,65.722-37.38c54.234-28.308,111.254-51.937,170.599-70.368
						c97.384-30.29,200.914-46.597,308.261-46.597c246.878,0,473.601,86.245,651.661,230.255
						c130.976,105.94,237.496,243.088,304.506,400.161c14.988,35.084,25.114,71.144,40.718,108.065v0.03
						c0,0.171-1.786,0.287-1.729,0.459C2957.092,1845.733,2970.148,1945.788,2970.148,2049.402z"/>
					<g>
						<path style="fill:#FFFFFF;" d="M1847.67,3082.935v-0.028h0.086l-0.057,0.028
							C1847.67,3082.935,1847.67,3082.935,1847.67,3082.935z"/>
						<path style="fill:#FFFFFF;" d="M2159.548,2399.033c-22.25,31.352-91.097,71.603-44.386,150.67
							c46.31,78.866-3.215,93.653-35.083,86.274c-32.011-7.293-131.521-11.368-114.927,33.85
							c16.538,45.275,45.046,62.242,8.585,79.727c-36.433,17.398-51.851,62.847-89.146,125.406
							c-37.036,62.674-125.061,8.47-98.992,71.287c26.011,62.846,46.309,56.76,43.87,100.542
							c-0.576,12.03,7.407,24.375,18.202,36.118c-13.896-1.149-27.849-2.555-41.688-4.25c-4.88-0.575-9.761-1.206-14.613-1.895
							c-4.307-0.574-8.585-1.177-12.861-1.838c-3.733-0.546-7.436-1.12-11.111-1.723c-0.833-0.144-0.618-0.287-1.451-0.401
							c-8.9-1.493-13.519-3.102-25.222-4.795v-0.029c-7.802-7.407-2.914-15.446-1.737-24.115
							c11.627-80.848-99.917-136.402-118.609-193.047c-18.374-56.502-0.232-90.207-4.481-137.034
							c-4.364-46.74,10.922-108.725-15.979-148.115c-26.902-39.246-135.348-52.396-155.99-131.607
							c-20.786-79.039,27.557-197.41,46.333-217.565c18.547-20.154-89.792-111.854-141.355-114.783
							c-51.792-3.158-31.073-107.433-118.638-91.556c-87.737,15.388-245.36-33.562-212.802-86.217
							c26.872-43.38,71.978-139.071-75.276-181.735c4.708-15.216,10.542-30.26,14.443-45.161v-0.029
							c11.703-24.834,19.547-49.209,30.313-73.124c4.335-9.561,9.128-19.064,13.693-28.48
							c25.265-51.736,54.835-101.06,87.966-147.542c3.015-4.219,6.144-8.412,9.216-12.603c12.317-16.709,25.135-33.045,38.4-48.951
							c19.896-23.886,40.847-46.883,62.781-68.875c57.104-57.306,120.88-107.979,190.043-150.728
							c29.169,20.441,62.478,33.045,91.245,17.513c70.542-39.476,24.033-45.534-4.848-46.998c-7.523-0.373-14.814-3.359-20.67-7.895
							c54.233-28.308,111.252-51.937,170.596-70.368c-4.393,39.821-58.511,103.787-18.689,95.977
							c46.338-8.813,65.257-134.019,99.28-92.418c34.51,41.773-37.754,96.523,30.116,64.799
							c67.957-31.409,77.029-101.519,152.766-67.411c76.111,34.539,69.163,75.421,90.409,71.374
							c21.16-3.991,89.604,42.002,48.204,79.843c-41.774,37.954-80.073-10.393-142.69-24.978
							c-62.645-14.413-61.124,36.835-89.948,48.549c-29.314,11.311-170.711-57.019-205.421,4.737
							c-35.083,61.266-50.013,104.017,2.067,102.437c52.022-1.464,55.382-14.929,51.304,23.543
							c-4.163,38.5,5.312,67.325,52.453,31.121c46.999-36.146,36.463-71.402,73.211-54.176
							c36.777,17.283,41.112,1.636,80.215-26.758c39.074-28.394,90.495-31.351,103.96,32.356
							c13.493,63.737-9.561,78.034-78.293,81.25c-68.761,3.33-76.541-18.346-98.447,39.131
							c-21.791,57.507-112.744,131.349-192.586,161.782c-79.7,30.49-110.936,75.535-109.098,136.315
							c1.894,60.894-28.079,125.118-48.09,74.934c-20.098-50.33-76.427-135.081-133.905-78.436
							c-57.592,56.759-157.819,157.101-47.056,175.447c110.535,18.69,52.855-84.867,108.725-64.167
							c55.783,20.843-35.343,66.492,1.952,82.972c37.351,16.623,52.999,8.843,52.712,59.746
							c-0.288,50.873,12.374,100.284,57.708,78.694c45.303-21.503,103.498-121.243,169.044-62.243
							c65.63,59.143,60.98,51.448,95.403,34.222c34.394-17.197,56.301,34.367,70.397,57.851
							c14.096,23.457,69.392-0.488,114.21,69.392c44.786,69.88,62.357,82.341,113.432,57.191
							c51.103-25.122,71.891-6.46,85.21,28.824c13.264,35.284,44.731,0.804,59.89,47.429
							C2188.89,2374.888,2181.655,2367.653,2159.548,2399.033z"/>
						<g>
							<path style="fill:#FFFFFF;" d="M2334.45,1552.403c-36.203-77.689,143.176-68.962,174.872-62.99
								c31.897,5.311,106.715-53.171,116.219-80.36c9.761-27.39,25.781-14.383,82.541-15.159
								c56.732-0.603,6.602-13.436-55.842-34.021c-62.329-20.528-9.044-22.595-66.491-67.956
								c-24.719-19.868-16.94-36.749-0.46-49.296c130.976,105.94,235.623,243.088,302.633,400.161
								c-1.896-0.574-3.675-0.891-5.34-0.919c-39.736-0.229-48.492-88.082-68.961-105.193c-20.184-17.083,0.573,48.261,5.512,75.105
								c4.967,26.872-10.882,4.277-30.691,28.939c-19.897,24.691-55.814,25.15-59.057-11.886
								c-3.301-36.95-29.341-73.24-82.197-90.121c-52.856-16.881-98.59-3.014-141.54,13.551
								C2462.928,1568.537,2370.911,1629.489,2334.45,1552.403z"/>
							<path style="fill:#FFFFFF;" d="M2784.796,2641.977c3.589-26.671,9.446-54.233-1.695-64.311
								c-27.073-25.121-32.987-93.565-23.598-128.248c9.358-34.768,82.312-32.786,32.814-90.523
								c-49.64-57.908-94.369-126.64-73.527-165.944c20.845-39.246,14.528-42.117-24.546-41.888
								c-39.133,0.23-56.272,1.953-95.23-32.844c-38.989-35.256-92.62,83.201-239.357-11.8
								c-146.708-95.95-63.161-257.672-8.182-258.075c55.324-0.919,119.952-28.854,74.619-96.323
								c-45.191-67.727,25.436-77.287,59.946-61.898c34.567,15.216,95.862-25.667,158.335-44.099
								c62.617-18.346,59.861,83.661,94.628,104.074c34.969,20.442,100.486,4.221,134.536-28.451
								c24.318-23.313,29.63,3.876,53.66,29.686c28.308,94.399,43.495,194.454,43.495,298.068
								C2970.693,2269.723,2901.99,2474.023,2784.796,2641.977z"/>
							<path style="fill:#FFFFFF;" d="M2522.343,1423.093c0.036-0.062,45.751-20.702,29.182-53.953
								c-16.42-33.258-42.463-135.189-61.491-103.069c-19.148,32.266,9.08,94.914,2.916,121.946
								C2486.73,1415.132,2486.565,1429.324,2522.343,1423.093z"/>
							<path style="fill:#FFFFFF;" d="M2476.694,1391.978c-0.646-10.716,6.103-54.234-28.143-52.87
								c0.065-0.069-49.532,20.628-20.518,55.787C2457.178,1429.951,2477.436,1402.666,2476.694,1391.978z"/>
						</g>
					</g>
				</g>
				
					<linearGradient id="SVGID_00000130611114504225390270000013911803155070802366_" gradientUnits="userSpaceOnUse" x1="899.8363" y1="2048.5295" x2="2967.3916" y2="2048.5295">
					<stop  offset="0.0036" style="stop-color:#E38DDD"/>
					<stop  offset="1" style="stop-color:#9571F6"/>
				</linearGradient>
				
					<path style="opacity:0.3;clip-path:url(#SVGID_00000044155948782360514920000010655358262168716712_);fill:url(#SVGID_00000130611114504225390270000013911803155070802366_);" d="
					M2967.392,2047.587c0,219.431-67.536,422.986-184.385,590.537c-0.46,0.689-0.729,1.35-0.729,2.039v0.029
					c-187.246,268.64-498.885,441.867-851.301,441.867c-28.823,0-57.811-2.196-86.032-6.096c-0.029,0-0.029,0-0.029,0
					c-0.115,0-0.172,2.565-0.288,2.565c-13.895-1.148-27.675-1.287-41.4-2.981c-4.882-0.574-9.76-0.558-14.613-1.247
					c-4.306-0.574-8.585-0.852-12.862-1.513c-3.733-0.545-7.437-0.943-11.111-1.545c-0.833-0.144-1.666-0.214-2.498-0.328
					c-9.044-1.493-18.059-3.035-27.045-4.758c-0.058,0-0.085-0.01-0.143-0.01c-443.082-84.637-785.995-451.47-835.119-906.151
					c103.903,298.039,360.828,521.974,676.697,584.389h0.115c7.752,3.9,15.532,3.113,23.341,4.405
					c0.717,0.086,1.465,0.338,2.183,0.452c3.158,0.517,6.373,1.044,9.589,1.503c3.674,0.575,7.378,1.039,11.111,1.527
					c4.192,0.603,8.382,0.964,12.604,1.452c11.857,1.465,23.742,4.166,35.743,5.141c0.115,0,0.173,1.122,0.258,1.122c0,0,0,0,0.03,0
					c24.374,0,48.664,1.959,73.555,1.959c152.164,0,295.569-38.683,421.033-105.435c125.462-66.75,232.981-162.991,313.37-278.98
					c0-0.603,0.976-1.41,1.348-2.012c100.917-144.67,159.974-320.578,159.974-510.064c0-89.461-13.135-175.936-37.595-257.444
					c-0.029-0.143-0.358-0.317-0.358-0.46v-0.029c-7.802-31.868-20.37-63.019-33.29-93.307
					c-57.881-135.655-148.008-254.084-261.125-345.554c-82.801-66.981-177.763-119.463-281.09-153.657
					c209.297,19.265,400.596,100.773,555.201,225.805c130.975,105.94,236.926,243.089,303.936,400.161
					c14.986,35.084,24.544,71.143,40.147,108.065v0.029c0,0.172-1.214,0.287-1.159,0.46
					C2953.763,1843.917,2967.392,1943.972,2967.392,2047.587z"/>
			</g>
		</g>
		<g>
			<g>
				<g>
					
						<linearGradient id="SVGID_00000091003478509889962420000001132780459497666948_" gradientUnits="userSpaceOnUse" x1="1374.3954" y1="1693.6981" x2="1754.1212" y2="2671.7781">
						<stop  offset="0" style="stop-color:#FFC444"/>
						<stop  offset="0.3138" style="stop-color:#FBA94A"/>
						<stop  offset="0.9964" style="stop-color:#F36F56"/>
					</linearGradient>
					<path style="fill:url(#SVGID_00000091003478509889962420000001132780459497666948_);" d="M1800.096,1830.59
						c0,161.123-225.725,455.137-327.878,579.944c-25.421,31.059-72.941,31.059-98.361,0
						c-102.153-124.807-327.878-418.821-327.878-579.944c0-208.243,168.815-377.058,377.058-377.058
						C1631.282,1453.532,1800.096,1622.347,1800.096,1830.59z"/>
					
						<ellipse transform="matrix(0.7071 -0.7071 0.7071 0.7071 -877.6245 1542.4072)" style="fill:#FFFFFF;" cx="1423.038" cy="1830.59" rx="210.291" ry="210.291"/>
					<g style="opacity:0.3;">
						
							<linearGradient id="SVGID_00000160902905878575955940000005130248920049106561_" gradientUnits="userSpaceOnUse" x1="1238.4291" y1="1746.4847" x2="1618.1556" y2="2724.5667">
							<stop  offset="0" style="stop-color:#FFC444"/>
							<stop  offset="0.3138" style="stop-color:#FBA94A"/>
							<stop  offset="0.9964" style="stop-color:#F36F56"/>
						</linearGradient>
						<path style="fill:url(#SVGID_00000160902905878575955940000005130248920049106561_);" d="M1421.372,2255.721
							c23.923-157.54,127.955-207.966,110.099-356.722c-20.593-171.555-172.493-217.248-176.159-369.934
							c-0.59-24.581,2.754-48.286,9.062-70.983c-180.38,28.18-318.395,184.221-318.395,372.508
							c0,161.123,225.725,455.137,327.877,579.944c14.963,18.281,37.58,25.789,58.843,22.55
							C1414.419,2364.082,1413.865,2305.158,1421.372,2255.721z"/>
					</g>
				</g>
			</g>
			<g>
				
					<linearGradient id="SVGID_00000093169554243741998780000017129623521926734728_" gradientUnits="userSpaceOnUse" x1="826.6459" y1="3224.3325" x2="939.274" y2="3224.3325">
					<stop  offset="0" style="stop-color:#40447E"/>
					<stop  offset="0.9964" style="stop-color:#3C3B6B"/>
				</linearGradient>
				<path style="fill:url(#SVGID_00000093169554243741998780000017129623521926734728_);" d="M841.981,3201.508
					c-13.071,13.19-18.369,27.348-13.62,35.646c3.28,5.734,10.536,7.23,18.486,8.757c12.551,2.409,25.634,1.759,52.538-5.838
					c25.115-7.093,39.877-11.261,39.89-17.294c0.012-5.647-12.901-10.033-24.235-13.885c-16.021-5.442-30.083-6.983-39.732-7.385
					C864.198,3201.508,853.089,3201.508,841.981,3201.508z"/>
				
					<linearGradient id="SVGID_00000099648734966077384220000001918396301427371933_" gradientUnits="userSpaceOnUse" x1="1216.593" y1="3030.7034" x2="1291.0559" y2="3030.7034">
					<stop  offset="0" style="stop-color:#40447E"/>
					<stop  offset="0.9964" style="stop-color:#3C3B6B"/>
				</linearGradient>
				<path style="fill:url(#SVGID_00000099648734966077384220000001918396301427371933_);" d="M1232.531,2987.6
					c-5.885,2.544-13.435,7.028-15.447,14.437c-3.177,11.696,9.326,23.773,29.319,42.605c15.003,14.132,35.264,33.217,42.316,28.404
					c4.319-2.948,1.767-13.551-0.609-23.42c-2.86-11.88-9.182-30.264-24.838-50.414
					C1263.273,2999.212,1263.273,2999.212,1232.531,2987.6z"/>
				
					<linearGradient id="SVGID_00000103982451167713717500000004256816240122370983_" gradientUnits="userSpaceOnUse" x1="881.6259" y1="3218.8708" x2="922.4883" y2="3303.5144">
					<stop  offset="0" style="stop-color:#311944"/>
					<stop  offset="1" style="stop-color:#A03976"/>
				</linearGradient>
				<path style="fill:url(#SVGID_00000103982451167713717500000004256816240122370983_);" d="M870.66,3172.445l-28.132,31.193
					c-2.888,3.203-1.443,8.351,2.713,9.511c6.16,1.719,14.75,3.114,22.634,0.882c1.733-0.49,3.262-1.534,4.551-2.793l28.074-27.417
					L870.66,3172.445z"/>
				
					<linearGradient id="SVGID_00000065771328905363429190000013058896671041681542_" gradientUnits="userSpaceOnUse" x1="1274.9746" y1="2883.8145" x2="1212.4858" y2="3162.1724">
					<stop  offset="0" style="stop-color:#311944"/>
					<stop  offset="1" style="stop-color:#A03976"/>
				</linearGradient>
				<path style="fill:url(#SVGID_00000065771328905363429190000013058896671041681542_);" d="M1248.118,2968.765l-15.167,21.855
					c-2.149,3.097-1.12,7.345,2.182,9.166c2.18,1.203,4.784,2.479,7.502,3.462c4.407,1.595,9.344,0.405,12.456-3.099l16.451-18.52
					L1248.118,2968.765z"/>
				
					<linearGradient id="SVGID_00000106105371610515015640000001295284631288469167_" gradientUnits="userSpaceOnUse" x1="1258.8971" y1="3096.7659" x2="970.2142" y2="2808.083">
					<stop  offset="0" style="stop-color:#444B8C"/>
					<stop  offset="0.9964" style="stop-color:#3E4177"/>
				</linearGradient>
				<path style="fill:url(#SVGID_00000106105371610515015640000001295284631288469167_);" d="M975.734,2510.994
					c14.418,30.134,31.797,73.597,42.34,127.983c4.435,22.874,25.18,138.05-19.411,276.843
					c-41.501,129.174-117.941,211.4-158.61,249.523c5.759,4.871,13.736,10.594,24.057,15.396c16.523,7.687,31.63,9.564,41.297,9.956
					c124.209-88.666,184.439-189.121,211.782-243.79c92.247-184.44,69.105-365.509,28.781-442.089
					c-13.241-25.147-28.198-38.765-45.14-44.823C1046.459,2440.552,983.413,2503.18,975.734,2510.994z"/>
				
					<linearGradient id="SVGID_00000155111863885160955620000014384058022900561329_" gradientUnits="userSpaceOnUse" x1="1258.8971" y1="3096.7659" x2="970.2142" y2="2808.083">
					<stop  offset="0" style="stop-color:#AB316D"/>
					<stop  offset="1" style="stop-color:#792D3D"/>
				</linearGradient>
				<path style="opacity:0.3;fill:url(#SVGID_00000155111863885160955620000014384058022900561329_);" d="M1145.969,2504.816
					c-13.241-25.147-28.198-38.765-45.14-44.823c-54.371-19.442-117.417,43.187-125.096,51.001
					c14.215,29.711,31.279,72.428,41.861,125.746c37.985,8.93,91.054,30.113,116.914,80.181
					c41.838,81.004-18.312,178.085-30.793,198.229c-27.471,44.338-44.107,40.181-84.68,103.926
					c-30.644,48.145-32.985,69.107-59.661,92.378c-31.363,27.36-70.527,35.38-102.15,37.122
					c-6.204,6.302-11.985,11.904-17.173,16.766c5.759,4.871,13.736,10.594,24.057,15.396c16.523,7.687,31.63,9.564,41.297,9.956
					c124.209-88.666,184.439-189.121,211.782-243.79C1209.435,2762.465,1186.294,2581.396,1145.969,2504.816z"/>
				
					<linearGradient id="SVGID_00000001659644420414923310000003907149857633533350_" gradientUnits="userSpaceOnUse" x1="1450.0653" y1="2905.5984" x2="1161.3823" y2="2616.9153">
					<stop  offset="0" style="stop-color:#444B8C"/>
					<stop  offset="0.9964" style="stop-color:#3E4177"/>
				</linearGradient>
				<path style="fill:url(#SVGID_00000001659644420414923310000003907149857633533350_);" d="M1045.98,2504.258
					c6.683,13.574,18.295,33.83,37.529,53.887c48.753,50.838,94.337,46.028,145.987,87.903c6.366,5.161,52.109,43.098,69.004,98.444
					c32.522,106.535-61.984,211.592-72.448,222.902c6.075,5.628,15.259,12.908,27.781,18.963c11.521,5.57,22.04,8.254,29.831,9.623
					c135.498-123.807,201.707-273.836,156.619-371.326c-24.595-53.177-82.822-91.843-125.826-120.397
					c-70.314-46.69-137.422-67.896-181.114-78.25C1104.221,2452.091,1075.1,2478.175,1045.98,2504.258z"/>
				
					<linearGradient id="SVGID_00000142897398113477371010000018150547419132120195_" gradientUnits="userSpaceOnUse" x1="784.8804" y1="2763.5215" x2="997.7937" y2="2247.3669">
					<stop  offset="0" style="stop-color:#311944"/>
					<stop  offset="1" style="stop-color:#893976"/>
				</linearGradient>
				<path style="fill:url(#SVGID_00000142897398113477371010000018150547419132120195_);" d="M1126.811,2221.669
					c2.04,59.912-11.85,90.981,7.604,139.877c13.978,35.134,37.139,59.281,54.714,74.29c-10.004,19.193-33.303,57.51-78.794,87.441
					c-54.957,36.161-109.616,38.581-131.074,38.396c-45.464-23.394-114.424-67.48-169.776-145.991
					c-37.521-53.22-78.717-111.654-67.817-186.141c13.848-94.63,101.534-145.182,126.395-159.515
					c16.363-9.434,129.372-74.586,198.445-26.698C1122.05,2081.833,1125.285,2176.858,1126.811,2221.669z"/>
				<path style="fill:#FFFFFF;" d="M1504.505,2289.67c1.808-9.678,8.736-16.705,12.691-20.695c4.59-4.631,5.529-3.901,8.523-7.692
					c7.54-9.542,5.717-19.397,8.617-19.727c2.52-0.287,6.947,6.811,6.645,14.151c-0.337,8.205-6.332,10.651-5.202,15.199
					c1.589,6.396,15.801,11.043,28.387,8.66c14.594-2.762,21.715-14.527,27.425-11.547c4.146,2.163,3.879,9.909,3.849,10.585
					c-0.636,14.523-20.042,29.766-38.972,31.755c-10.899,1.146-14.977-2.804-27.906,0.481c-8.575,2.178-11.573,5.133-15.877,3.368
					C1505.634,2311.317,1502.775,2298.922,1504.505,2289.67z"/>
				
					<linearGradient id="SVGID_00000103262849416454730440000014903701687658874796_" gradientUnits="userSpaceOnUse" x1="974.2215" y1="2841.6243" x2="1187.1349" y2="2325.4692">
					<stop  offset="0" style="stop-color:#311944"/>
					<stop  offset="1" style="stop-color:#893976"/>
				</linearGradient>
				<path style="fill:url(#SVGID_00000103262849416454730440000014903701687658874796_);" d="M1506.589,2284.538
					c-116.678,8.079-186.369-22.269-228.379-51.322c-95.303-65.906-114.003-170.688-224.531-198.87
					c-20.157-5.139-55.26-14.09-74.416,3.849c-39.803,37.276,7.134,173.908,89.812,257.89
					c18.256,18.545,84.041,83.415,192.606,98.061c139.149,18.772,238.966-59.754,256.185-73.768
					c5.456-6.146,7.119-14.753,4.284-22.299C1518.164,2287.469,1507.465,2284.745,1506.589,2284.538z"/>
				
					<linearGradient id="SVGID_00000011740784225892758760000017629143684993111717_" gradientUnits="userSpaceOnUse" x1="1064.1946" y1="1999.7736" x2="904.4564" y2="2492.459">
					<stop  offset="0" style="stop-color:#FF9085"/>
					<stop  offset="1" style="stop-color:#FB6FBB"/>
				</linearGradient>
				<path style="opacity:0.3;fill:url(#SVGID_00000011740784225892758760000017629143684993111717_);" d="M929.223,2468.012
					c-32.856-31.121-17.302-50.407-57.736-112.906c-41.189-63.669-70.834-64.851-89.812-107.775
					c-9.817-22.205-15.874-54.096-5.053-99.908c-16.644,22.424-30.195,49.61-34.953,82.119
					c-10.9,74.487,30.296,132.921,67.817,186.141c55.352,78.511,124.311,122.597,169.776,145.991
					c21.458,0.185,76.117-2.235,131.074-38.396c20.389-13.417,36.292-28.51,48.566-42.819
					c-16.782,9.242-36.415,17.316-59.034,22.196C1088.907,2505.018,989.438,2525.047,929.223,2468.012z"/>
				<path style="fill:#FFFFFF;" d="M899.089,2005.219l-9.506,32.112c-3.042,10.273-9.209,19.343-17.645,25.948l-25.223,19.749
					c0,0,76.928-12.914,113.718-48.761l-22.466-7.086c-2.362-0.745-3.968-2.936-3.968-5.411v-23.609L899.089,2005.219z"/>
				<g>
					<g>
						<path style="fill:#FFFFFF;" d="M926.743,2021.444c3.662-0.812,30.218,3.535,37.766-9.231
							c10.248-17.327,0.051-45.014-0.979-49.292c-4.31-17.907-5.913-20.622-9.237-24.412l-4.7-4.969c0,0-0.291-0.218-0.601-0.431
							c-3.267-2.247-15.47-5.901-18.105-6.033c-8.414-0.422-25.539,29.754-35.345,76.257c-0.796,1.659-1.584,3.335-2.366,5.031
							C891.145,2012.771,926.503,2023.136,926.743,2021.444z"/>
						<path style="fill:#26264F;" d="M969.568,1924.914c-3.835,14.195-14.574,27.583-18.633,29.111
							c-0.524,0.198-3.525,1.495-6.644,4.25c-0.425,0.374-0.834,0.837-1.257,1.463c-5.499,8.123,5.927,22.454,2.111,25.73
							c-2.768,2.376-11.406-4.091-13.226-1.887c-1.714,2.074,5.022,9.111,3.036,11.614c-1.498,1.889-5.926-1.385-9.919,1.057
							c-1.99,1.215-1.878,2.63-4.855,7.175c-1.683,2.57-3.809,5.307-5.277,6.754c-7.134,7.032-21.852,6.372-23.638,2.321
							c-0.496-1.129,0.351-1.74,0.423-5.065c0,0,0.066-3.081-1.055-6.964c-1.602-5.546-7.634-10.815-13.297-17.729
							c-10.484-12.802-11.888-21.707-12.228-24.68c-0.121-1.058-0.163-1.845-0.192-2.411c-0.583-11.371,3.503-26.757,10.732-34.961
							c12.111-13.743,27.896-1.478,46.644-13.296c21.629-13.635,18.224-41.063,28.07-41.367
							C961.216,1865.692,976.658,1898.667,969.568,1924.914z"/>
						<path style="fill:#FFFFFF;" d="M940.927,1980.767c-2.207-5.713-9.524-2.849-11.209,3.332
							c-1.687,6.18,2.596,14.216,8.74,14.544C944.604,1998.974,943.897,1988.456,940.927,1980.767z"/>
					</g>
				</g>
			</g>
		</g>
		<g>
			<g>
				<g>
					
						<linearGradient id="SVGID_00000132784794931538425520000015840206278316256954_" gradientUnits="userSpaceOnUse" x1="2350.0159" y1="973.505" x2="2644.8066" y2="1732.8138">
						<stop  offset="0" style="stop-color:#FF9085"/>
						<stop  offset="1" style="stop-color:#FB6FBB"/>
					</linearGradient>
					<path style="fill:url(#SVGID_00000132784794931538425520000015840206278316256954_);" d="M2680.499,1079.778
						c0,125.084-175.236,353.335-254.54,450.226c-19.734,24.112-56.625,24.112-76.36,0
						c-79.304-96.891-254.54-325.142-254.54-450.226c0-161.665,131.055-292.72,292.72-292.72
						C2549.443,787.058,2680.499,918.113,2680.499,1079.778z"/>
					
						<ellipse transform="matrix(0.7071 -0.7071 0.7071 0.7071 -64.1542 2004.6737)" style="fill:#FFFFFF;" cx="2387.778" cy="1079.778" rx="163.254" ry="163.254"/>
					<g style="opacity:0.3;">
						
							<linearGradient id="SVGID_00000041270444351263511310000015488972749384476333_" gradientUnits="userSpaceOnUse" x1="2244.4614" y1="1014.4844" x2="2539.2532" y2="1773.7954">
							<stop  offset="0" style="stop-color:#FF9085"/>
							<stop  offset="1" style="stop-color:#FB6FBB"/>
						</linearGradient>
						<path style="fill:url(#SVGID_00000041270444351263511310000015488972749384476333_);" d="M2386.485,1409.818
							c18.572-122.302,99.335-161.45,85.473-276.932c-15.987-133.183-133.911-168.655-136.757-287.189
							c-0.458-19.083,2.138-37.485,7.035-55.106c-140.034,21.877-247.178,143.015-247.178,289.188
							c0,125.084,175.236,353.335,254.54,450.226c11.615,14.192,29.174,20.021,45.681,17.506
							C2381.087,1493.942,2380.657,1448.197,2386.485,1409.818z"/>
					</g>
				</g>
			</g>
			
				<linearGradient id="SVGID_00000045590928700179308550000014204149807900509314_" gradientUnits="userSpaceOnUse" x1="2129.6682" y1="1035.4502" x2="2070.8057" y2="865.6536">
				<stop  offset="0" style="stop-color:#FFC444"/>
				<stop  offset="0.9964" style="stop-color:#F36F56"/>
			</linearGradient>
			<path style="fill:url(#SVGID_00000045590928700179308550000014204149807900509314_);" d="M2090.155,1029.373
				c0,0,14.126-67.027,29.849-67.974c15.722-0.948,39.908,53.387,39.908,53.387S2117.03,1032.641,2090.155,1029.373z"/>
			
				<linearGradient id="SVGID_00000084531606239289551030000014979093907948441249_" gradientUnits="userSpaceOnUse" x1="2692.5156" y1="1127.9944" x2="2614.9104" y2="904.1332">
				<stop  offset="0" style="stop-color:#FFC444"/>
				<stop  offset="0.9964" style="stop-color:#F36F56"/>
			</linearGradient>
			<path style="fill:url(#SVGID_00000084531606239289551030000014979093907948441249_);" d="M2680.592,1029.773
				c0,0,28.135,62.304,9.803,83.128c-18.331,20.824-37.212-17.938-33.322-33.123
				C2660.965,1064.593,2680.592,1029.773,2680.592,1029.773z"/>
		</g>
		<g>
			
				<linearGradient id="SVGID_00000065772224896387063810000000239962715856835257_" gradientUnits="userSpaceOnUse" x1="2441.5652" y1="3002.3354" x2="3553.6914" y2="3002.3354" gradientTransform="matrix(-1 0 0 1 5510.644 0)">
				<stop  offset="0" style="stop-color:#444B8C"/>
				<stop  offset="0.9964" style="stop-color:#26264F"/>
			</linearGradient>
			<path style="fill:url(#SVGID_00000065772224896387063810000000239962715856835257_);" d="M3069.079,2877.87v81.281
				c0,7.561-5.722,13.896-13.244,14.662l-832.192,78.859l-112.014,74.129l-154.675-205.754L3069.079,2877.87z"/>
			
				<linearGradient id="SVGID_00000178174234122471750360000017757326845768780678_" gradientUnits="userSpaceOnUse" x1="3079.4392" y1="3041.9238" x2="3289.6775" y2="3041.9238" gradientTransform="matrix(-1 0 0 1 5510.644 0)">
				<stop  offset="0" style="stop-color:#444B8C"/>
				<stop  offset="0.9964" style="stop-color:#26264F"/>
			</linearGradient>
			<path style="fill:url(#SVGID_00000178174234122471750360000017757326845768780678_);" d="M2431.205,2989.582v72.748
				c0,6.099-4.428,11.296-10.45,12.263l-199.788,32.094l5.81-117.275l191.216-12.225
				C2425.149,2976.729,2431.205,2982.41,2431.205,2989.582z"/>
			<g>
				
					<linearGradient id="SVGID_00000050659601645154945210000014080668332637149330_" gradientUnits="userSpaceOnUse" x1="2496.0134" y1="2965.8367" x2="2555.7251" y2="2965.8367" gradientTransform="matrix(-1 0 0 1 5510.644 0)">
					<stop  offset="0" style="stop-color:#311944"/>
					<stop  offset="1" style="stop-color:#6B3976"/>
				</linearGradient>
				<path style="fill:url(#SVGID_00000050659601645154945210000014080668332637149330_);" d="M2984.774,2915.368
					c0.677,0,1.346,0.052,2.012,0.127l10.565-0.127l-0.062,4.65c10.236,8.003,17.341,25.503,17.341,45.819
					c0,21.117-7.676,39.195-18.566,46.723l-0.049,3.745h-11.24c-16.489,0-29.856-22.595-29.856-50.468
					C2954.919,2937.964,2968.286,2915.368,2984.774,2915.368z"/>
				
					<linearGradient id="SVGID_00000016074747175713425550000016930707718724802447_" gradientUnits="userSpaceOnUse" x1="2483.4363" y1="2965.8367" x2="2543.1477" y2="2965.8367" gradientTransform="matrix(-1 0 0 1 5510.644 0)">
					<stop  offset="0" style="stop-color:#311944"/>
					<stop  offset="1" style="stop-color:#6B3976"/>
				</linearGradient>
				
					<ellipse style="fill:url(#SVGID_00000016074747175713425550000016930707718724802447_);" cx="2997.352" cy="2965.837" rx="29.856" ry="50.468"/>
				<ellipse style="fill:#D8DEE8;" cx="3001.548" cy="2965.837" rx="16.773" ry="28.353"/>
				
					<linearGradient id="SVGID_00000119101892541619706880000013728731845708453537_" gradientUnits="userSpaceOnUse" x1="2541.6006" y1="2969.8706" x2="2494.9739" y2="2963.594" gradientTransform="matrix(-1 0 0 1 5510.644 0)">
					<stop  offset="0.0054" style="stop-color:#D8DEE8"/>
					<stop  offset="1" style="stop-color:#F4F7FA"/>
				</linearGradient>
				<path style="fill:url(#SVGID_00000119101892541619706880000013728731845708453537_);" d="M2984.774,2965.837
					c0,14.538,6.373,26.323,14.235,26.323c7.862,0,14.236-11.785,14.236-26.323c0-14.538-6.374-26.323-14.236-26.323
					C2991.148,2939.513,2984.774,2951.299,2984.774,2965.837z"/>
			</g>
			<g>
				
					<linearGradient id="SVGID_00000136392100154772554550000007102656275345749158_" gradientUnits="userSpaceOnUse" x1="2563.7126" y1="2976.342" x2="2629.135" y2="2976.342" gradientTransform="matrix(-1 0 0 1 5510.644 0)">
					<stop  offset="0" style="stop-color:#311944"/>
					<stop  offset="1" style="stop-color:#6B3976"/>
				</linearGradient>
				<path style="fill:url(#SVGID_00000136392100154772554550000007102656275345749158_);" d="M2914.22,2921.047
					c0.742,0,1.475,0.057,2.205,0.139l11.575-0.139l-0.068,5.094c11.215,8.768,18.999,27.941,18.999,50.201
					c0,23.136-8.409,42.944-20.341,51.192l-0.054,4.103h-12.315c-18.065,0-32.711-24.756-32.711-55.295
					C2881.509,2945.803,2896.155,2921.047,2914.22,2921.047z"/>
				
					<linearGradient id="SVGID_00000090982460382140439920000012060670027452215727_" gradientUnits="userSpaceOnUse" x1="2549.9326" y1="2976.3423" x2="2615.3547" y2="2976.3423" gradientTransform="matrix(-1 0 0 1 5510.644 0)">
					<stop  offset="0" style="stop-color:#311944"/>
					<stop  offset="1" style="stop-color:#6B3976"/>
				</linearGradient>
				
					<ellipse style="fill:url(#SVGID_00000090982460382140439920000012060670027452215727_);" cx="2928" cy="2976.342" rx="32.711" ry="55.295"/>
				<ellipse style="fill:#D8DEE8;" cx="2932.598" cy="2976.342" rx="18.378" ry="31.065"/>
				
					<linearGradient id="SVGID_00000088819596191841890370000010594208030313772208_" gradientUnits="userSpaceOnUse" x1="2613.6594" y1="2980.762" x2="2562.5735" y2="2973.885" gradientTransform="matrix(-1 0 0 1 5510.644 0)">
					<stop  offset="0.0054" style="stop-color:#D8DEE8"/>
					<stop  offset="1" style="stop-color:#F4F7FA"/>
				</linearGradient>
				
					<ellipse style="fill:url(#SVGID_00000088819596191841890370000010594208030313772208_);" cx="2929.817" cy="2976.342" rx="15.597" ry="28.841"/>
			</g>
			<g>
				
					<linearGradient id="SVGID_00000084513612156456656030000014436472610559187644_" gradientUnits="userSpaceOnUse" x1="2636.0195" y1="2981.4221" x2="2707.4521" y2="2981.4221" gradientTransform="matrix(-1 0 0 1 5510.644 0)">
					<stop  offset="0" style="stop-color:#311944"/>
					<stop  offset="1" style="stop-color:#6B3976"/>
				</linearGradient>
				<path style="fill:url(#SVGID_00000084513612156456656030000014436472610559187644_);" d="M2838.908,2921.047
					c0.81,0,1.61,0.062,2.407,0.152l12.639-0.152l-0.074,5.563c12.245,9.574,20.744,30.509,20.744,54.813
					c0,25.262-9.182,46.889-22.21,55.894l-0.06,4.48h-13.447c-19.725,0-35.716-27.031-35.716-60.374
					C2803.192,2948.078,2819.183,2921.047,2838.908,2921.047z"/>
				
					<linearGradient id="SVGID_00000018229972015441360430000005397874580069133698_" gradientUnits="userSpaceOnUse" x1="2620.9736" y1="2981.4221" x2="2692.4063" y2="2981.4221" gradientTransform="matrix(-1 0 0 1 5510.644 0)">
					<stop  offset="0" style="stop-color:#311944"/>
					<stop  offset="1" style="stop-color:#6B3976"/>
				</linearGradient>
				
					<ellipse style="fill:url(#SVGID_00000018229972015441360430000005397874580069133698_);" cx="2853.954" cy="2981.422" rx="35.716" ry="60.375"/>
				<path style="fill:#D8DEE8;" d="M2838.908,2981.422c0,18.733,8.984,33.919,20.066,33.919s20.066-15.186,20.066-33.919
					c0-18.733-8.984-33.919-20.066-33.919S2838.908,2962.689,2838.908,2981.422z"/>
				
					<linearGradient id="SVGID_00000177457412288856163190000001526773292533775745_" gradientUnits="userSpaceOnUse" x1="2690.5549" y1="2986.248" x2="2634.7759" y2="2978.7393" gradientTransform="matrix(-1 0 0 1 5510.644 0)">
					<stop  offset="0.0054" style="stop-color:#D8DEE8"/>
					<stop  offset="1" style="stop-color:#F4F7FA"/>
				</linearGradient>
				<path style="fill:url(#SVGID_00000177457412288856163190000001526773292533775745_);" d="M2838.908,2981.422
					c0,17.392,7.624,31.49,17.03,31.49s17.029-14.099,17.029-31.49s-7.624-31.49-17.029-31.49S2838.908,2964.031,2838.908,2981.422z
					"/>
			</g>
			<g>
				
					<linearGradient id="SVGID_00000054244982199849210230000004011312308447495845_" gradientUnits="userSpaceOnUse" x1="2973.387" y1="3029.6121" x2="3064.5781" y2="3029.6121" gradientTransform="matrix(-1 0 0 1 5510.644 0)">
					<stop  offset="0" style="stop-color:#311944"/>
					<stop  offset="1" style="stop-color:#6B3976"/>
				</linearGradient>
				<path style="fill:url(#SVGID_00000054244982199849210230000004011312308447495845_);" d="M2491.661,2952.537
					c1.034,0,2.057,0.079,3.073,0.194l16.134-0.194l-0.094,7.101c15.632,12.221,26.482,38.947,26.482,69.974
					c0,32.249-11.722,59.859-28.354,71.355l-0.076,5.719h-17.166c-25.181,0-45.595-34.507-45.595-77.074
					C2446.066,2987.045,2466.48,2952.537,2491.661,2952.537z"/>
				
					<linearGradient id="SVGID_00000044898537268972677770000000539997897086902960_" gradientUnits="userSpaceOnUse" x1="2954.1792" y1="3029.6123" x2="3045.3701" y2="3029.6123" gradientTransform="matrix(-1 0 0 1 5510.644 0)">
					<stop  offset="0" style="stop-color:#311944"/>
					<stop  offset="1" style="stop-color:#6B3976"/>
				</linearGradient>
				
					<ellipse style="fill:url(#SVGID_00000044898537268972677770000000539997897086902960_);" cx="2510.869" cy="3029.612" rx="45.596" ry="77.075"/>
				<path style="fill:#D8DEE8;" d="M2491.661,3029.612c0,23.915,11.469,43.301,25.616,43.301c14.147,0,25.616-19.387,25.616-43.301
					c0-23.915-11.469-43.302-25.616-43.302C2503.13,2986.311,2491.661,3005.698,2491.661,3029.612z"/>
				
					<linearGradient id="SVGID_00000018945822440758293160000010186542148421430184_" gradientUnits="userSpaceOnUse" x1="3043.0073" y1="3035.7729" x2="2971.7988" y2="3026.1873" gradientTransform="matrix(-1 0 0 1 5510.644 0)">
					<stop  offset="0.0054" style="stop-color:#D8DEE8"/>
					<stop  offset="1" style="stop-color:#F4F7FA"/>
				</linearGradient>
				
					<ellipse style="fill:url(#SVGID_00000018945822440758293160000010186542148421430184_);" cx="2513.401" cy="3029.612" rx="21.74" ry="40.2"/>
			</g>
			<g>
				
					<linearGradient id="SVGID_00000057128078270046999310000013821678338209670835_" gradientUnits="userSpaceOnUse" x1="3264.1526" y1="3063.188" x2="3380.6526" y2="3063.188" gradientTransform="matrix(-1 0 0 1 5510.644 0)">
					<stop  offset="0" style="stop-color:#311944"/>
					<stop  offset="1" style="stop-color:#6B3976"/>
				</linearGradient>
				<path style="fill:url(#SVGID_00000057128078270046999310000013821678338209670835_);" d="M2188.241,2964.722
					c1.321,0,2.627,0.101,3.926,0.248l20.612-0.248l-0.121,9.072c19.971,15.614,33.832,49.757,33.832,89.395
					c0,41.199-14.975,76.471-36.223,91.158l-0.097,7.306h-21.93c-32.17,0-58.25-44.084-58.25-98.465
					C2129.991,3008.807,2156.071,2964.722,2188.241,2964.722z"/>
				
					<linearGradient id="SVGID_00000064328535852929833100000010656298964314019203_" gradientUnits="userSpaceOnUse" x1="3239.614" y1="3063.188" x2="3356.1138" y2="3063.188" gradientTransform="matrix(-1 0 0 1 5510.644 0)">
					<stop  offset="0" style="stop-color:#311944"/>
					<stop  offset="1" style="stop-color:#6B3976"/>
				</linearGradient>
				
					<ellipse style="fill:url(#SVGID_00000064328535852929833100000010656298964314019203_);" cx="2212.78" cy="3063.188" rx="58.25" ry="98.466"/>
				<ellipse style="fill:#D8DEE8;" cx="2220.966" cy="3063.188" rx="32.725" ry="55.319"/>
				
					<linearGradient id="SVGID_00000150092151075905675890000009733488114869777039_" gradientUnits="userSpaceOnUse" x1="3353.0952" y1="3071.0586" x2="3262.124" y2="3058.8125" gradientTransform="matrix(-1 0 0 1 5510.644 0)">
					<stop  offset="0.0054" style="stop-color:#D8DEE8"/>
					<stop  offset="1" style="stop-color:#F4F7FA"/>
				</linearGradient>
				
					<ellipse style="fill:url(#SVGID_00000150092151075905675890000009733488114869777039_);" cx="2216.015" cy="3063.188" rx="27.774" ry="51.358"/>
			</g>
			
				<linearGradient id="SVGID_00000096052067452609409550000012279482077541204920_" gradientUnits="userSpaceOnUse" x1="3031.0298" y1="2531.321" x2="1854.8511" y2="3295.6074" gradientTransform="matrix(-1 0 0 1 5510.644 0)">
				<stop  offset="0" style="stop-color:#FFC444"/>
				<stop  offset="0.3138" style="stop-color:#FBA94A"/>
				<stop  offset="0.9964" style="stop-color:#F36F56"/>
			</linearGradient>
			<path style="fill:url(#SVGID_00000096052067452609409550000012279482077541204920_);" d="M3118.583,2445.219
				c10.898,1.813,18.886,11.239,18.886,22.285v412.01c0,11.988-9.363,21.888-21.332,22.556l-774.414,43.207v-629.222
				L3118.583,2445.219z"/>
			
				<linearGradient id="SVGID_00000030452221937901789650000001212988265385099177_" gradientUnits="userSpaceOnUse" x1="3817.4688" y1="2364.5725" x2="2925.0361" y2="2932.0686" gradientTransform="matrix(-1 0 0 1 5510.644 0)">
				<stop  offset="0" style="stop-color:#FFC444"/>
				<stop  offset="0.3138" style="stop-color:#FBA94A"/>
				<stop  offset="0.9964" style="stop-color:#F36F56"/>
			</linearGradient>
			<path style="fill:url(#SVGID_00000030452221937901789650000001212988265385099177_);" d="M1905.014,2330.746l436.709-14.692
				v629.222h-460.19v-590.246C1881.533,2341.929,1891.92,2331.187,1905.014,2330.746z"/>
			
				<linearGradient id="SVGID_00000005252246288585514390000001662775424493866631_" gradientUnits="userSpaceOnUse" x1="2373.1753" y1="2681.571" x2="3128.9724" y2="2681.571" gradientTransform="matrix(-1 0 0 1 5510.644 0)">
				<stop  offset="0" style="stop-color:#FFC444"/>
				<stop  offset="0.9964" style="stop-color:#F36F56"/>
			</linearGradient>
			<path style="opacity:0.3;fill:url(#SVGID_00000005252246288585514390000001662775424493866631_);" d="M2505.345,2787.111
				c99.448-45.806,192.795,24.109,283.784-43.463c79.683-59.173,53.992-146.875,117.605-250.548
				c14.565-23.738,34.073-48.656,60.731-73.006l151.116,25.125c10.898,1.813,18.886,11.239,18.886,22.285v412.01
				c0,11.988-9.363,21.888-21.332,22.556l-734.465,40.978C2415.375,2850.84,2461.175,2807.456,2505.345,2787.111z"/>
			<path style="fill:#F4F7FA;" d="M1648.882,2746.204l32.277-81.172l0.959-67.111l-32.604-6.52c-3.163-0.633-5.155-3.76-4.376-6.889
				c4.929-19.791,22.97-85.157,51.041-106.752c19.787-15.22,395-19.772,395-19.772l180.589,11.74
				c14.183,0.923,25.216,12.696,25.216,26.908v400.172c0,10.501-8.029,19.257-18.49,20.163l-123.964,10.752l-24.537,24.813
				c0,0-351.354,28.135-491.57,2.566c-7.264-1.324-12.55-7.606-12.55-14.988v-176.013
				C1625.872,2738.534,1648.882,2746.204,1648.882,2746.204z"/>
			
				<linearGradient id="SVGID_00000008871902702982105400000017691068892766741655_" gradientUnits="userSpaceOnUse" x1="3213.6606" y1="2709.4766" x2="3516.6191" y2="2709.4766" gradientTransform="matrix(-1 0 0 1 5510.644 0)">
				<stop  offset="0.0054" style="stop-color:#D8DEE8"/>
				<stop  offset="1" style="stop-color:#F4F7FA"/>
			</linearGradient>
			<path style="opacity:0.8;fill:url(#SVGID_00000008871902702982105400000017691068892766741655_);" d="M2029.816,2770.492
				c0,0,3.835-173.85,0-245.435c-1.859-34.724,15.534-54.985,33.936-66.669c17.16-0.275,27.427-0.401,27.427-0.401l180.589,11.74
				c14.183,0.923,25.216,12.696,25.216,26.908v400.172c0,10.501-8.029,19.257-18.49,20.163l-123.964,10.752l-24.537,24.813
				c0,0-57.85,4.633-135.967,8.428v-148.289L2029.816,2770.492z"/>
			<path style="fill:#97A6B7;" d="M1629.873,2986.286l13.895-4.864v-28.164c0-7.591,6.154-13.745,13.746-13.745h435.109
				c10.496,0,19.005,8.509,19.005,19.005v168.283c0,9.257-7.693,16.661-16.944,16.305l-465.904-17.92
				c-8.762-0.337-15.691-7.538-15.691-16.305v-98.937C1613.089,2999.293,1619.82,2989.805,1629.873,2986.286z"/>
			
				<linearGradient id="SVGID_00000036940709434825432210000008220144265653583770_" gradientUnits="userSpaceOnUse" x1="3554.7793" y1="2959.804" x2="3842.7363" y2="2959.804" gradientTransform="matrix(-1 0 0 1 5510.644 0)">
				<stop  offset="0" style="stop-color:#444B8C"/>
				<stop  offset="0.9964" style="stop-color:#26264F"/>
			</linearGradient>
			<path style="fill:url(#SVGID_00000036940709434825432210000008220144265653583770_);" d="M1682.891,2841.699h257.992
				c8.687,0,15.553,7.364,14.945,16.031l-14.212,202.554c-0.714,10.175-9.354,17.961-19.547,17.615l-221.648-7.509
				c-9.681-0.328-17.557-7.904-18.261-17.564l-14.211-195.055C1667.317,2849.09,1674.187,2841.699,1682.891,2841.699z"/>
			<g style="opacity:0.3;">
				<path style="fill:#97A6B7;" d="M1629.873,2986.286l13.895-4.864v-28.164c0-5.999,3.849-11.086,9.208-12.963l26.479,124.498
					c3.153,14.826,15.968,25.62,31.114,26.209l203.346,7.903c14.577,0.567,27.809-8.47,32.586-22.254l47.524-137.139l0,0h98.598
					c10.496,0,19.004,8.509,19.004,19.005v168.283c0,9.258-7.694,16.662-16.944,16.305l-465.904-17.92
					c-8.761-0.337-15.691-7.538-15.691-16.306v-98.936C1613.089,2999.293,1619.821,2989.806,1629.873,2986.286z"/>
			</g>
			
				<linearGradient id="SVGID_00000048469327283910665110000007037213507833470887_" gradientUnits="userSpaceOnUse" x1="3511.4897" y1="2955.7363" x2="3369.6167" y2="3450.0051" gradientTransform="matrix(-1 0 0 1 5510.644 0)">
				<stop  offset="0" style="stop-color:#FF9085"/>
				<stop  offset="1" style="stop-color:#FB6FBB"/>
			</linearGradient>
			<path style="fill:url(#SVGID_00000048469327283910665110000007037213507833470887_);" d="M1972.293,3087.512l48.382,2.419
				c30.038,1.502,55.85-21.099,58.329-51.072l1.945-23.518h-96.858c-6.516,0-11.798,5.282-11.798,11.797V3087.512z"/>
			
				<linearGradient id="SVGID_00000047035882414091685560000013320503203689389497_" gradientUnits="userSpaceOnUse" x1="3862.7849" y1="3056.5708" x2="3720.9111" y2="3550.8418" gradientTransform="matrix(-1 0 0 1 5510.644 0)">
				<stop  offset="0" style="stop-color:#FF9085"/>
				<stop  offset="1" style="stop-color:#FB6FBB"/>
			</linearGradient>
			<path style="fill:url(#SVGID_00000047035882414091685560000013320503203689389497_);" d="M1660.185,3025.296l7.723,52.613
				c0,0-51.008-1.786-49.729-66.079l31.654,3.481C1655.152,3015.896,1659.408,3020,1660.185,3025.296z"/>
			<path style="fill:#808080;" d="M2018.75,2771.989c-0.212,0-0.424-0.003-0.637-0.007L1651,2765.456l-3.854-19.271l0.076-0.352
				l33.535-149.611h350.704l19.222-3.339c5.336-0.919,10.765,0.557,14.907,4.042c4.135,3.489,6.51,8.589,6.51,14.002v115.886
				c0,9.279-4.467,18.091-11.952,23.573l-19.908,14.579C2034.035,2769.505,2026.427,2771.989,2018.75,2771.989z M1653.792,2762.106
				l364.38,6.48c7.094,0.123,14.28-2.129,20.061-6.361l19.908-14.579c6.613-4.845,10.563-12.632,10.563-20.833v-115.886
				c0-4.407-1.933-8.563-5.303-11.405c-3.373-2.839-7.793-4.039-12.141-3.29l-19.51,3.363l-348.273,0.023l-32.862,146.606
				L1653.792,2762.106z"/>
			
				<linearGradient id="SVGID_00000175310791427579594130000000289457586521639040_" gradientUnits="userSpaceOnUse" x1="3440.2412" y1="2682.3018" x2="3861.762" y2="2682.3018" gradientTransform="matrix(-1 0 0 1 5510.644 0)">
				<stop  offset="0" style="stop-color:#444B8C"/>
				<stop  offset="0.9964" style="stop-color:#26264F"/>
			</linearGradient>
			<path style="fill:url(#SVGID_00000175310791427579594130000000289457586521639040_);" d="M1682.117,2597.921h349.342
				l19.511-3.362c10.152-1.75,19.432,6.068,19.432,16.37v115.886c0,8.773-4.183,17.02-11.26,22.202l-19.907,14.578
				c-6.111,4.475-13.519,6.824-21.092,6.69l-365.746-6.503l-3.515-17.577L1682.117,2597.921z"/>
			<g>
				<path style="fill:#97A6B7;" d="M1899.269,2557.654h29.721c4.501,0,8.149,3.648,8.149,8.149v12.464
					c0,4.501-3.648,8.149-8.149,8.149h-29.721c-4.501,0-8.149-3.647-8.149-8.149v-12.464
					C1891.12,2561.302,1894.768,2557.654,1899.269,2557.654z"/>
				<path style="fill:#97A6B7;" d="M1724.781,2557.654h29.72c4.502,0,8.15,3.648,8.15,8.149v12.464c0,4.501-3.648,8.149-8.15,8.149
					h-29.72c-4.502,0-8.149-3.647-8.149-8.149v-12.464C1716.632,2561.302,1720.279,2557.654,1724.781,2557.654z"/>
			</g>
			<path style="opacity:0.3;fill:#FFFFFF;" d="M1791.412,2680.372c90.149-34.478,174.948,8.494,213.797-38.349
				c10.505-12.666,14.746-28.425,15.729-44.101h10.522l19.51-3.363c10.153-1.749,19.433,6.069,19.433,16.37v115.888
				c0,8.773-4.183,17.019-11.261,22.202l-19.907,14.576c-6.11,4.475-13.518,6.825-21.092,6.69l-331.31-5.891
				C1724.283,2713.912,1762.317,2691.5,1791.412,2680.372z"/>
		</g>
		<path style="fill:#FFFFFF;" d="M1686.83,2302.288c-4.58,0-8.354-3.648-8.483-8.251c0,0-0.03-1.054-0.03-3.091
			c0-6.785,0.335-25.483,3.446-52.544c0.534-4.659,4.709-8.019,9.402-7.465c4.66,0.534,8.002,4.746,7.465,9.402
			c-3.008,26.189-3.333,44.117-3.333,50.607c0,1.671,0.023,2.567,0.023,2.633c0.123,4.683-3.572,8.58-8.254,8.706
			C1686.986,2302.288,1686.906,2302.288,1686.83,2302.288z M1698.686,2194.085c-0.55,0-1.108-0.053-1.668-0.162
			c-4.6-0.919-7.584-5.389-6.669-9.986c3.552-17.815,7.866-35.823,12.824-53.526c1.263-4.513,5.956-7.157,10.463-5.886
			c4.517,1.263,7.15,5.949,5.887,10.463c-4.842,17.291-9.054,34.875-12.519,52.266
			C1706.197,2191.293,1702.652,2194.085,1698.686,2194.085z M1727.992,2089.428c-0.965,0-1.943-0.166-2.902-0.514
			c-4.407-1.605-6.679-6.477-5.077-10.881c6.261-17.208,13.245-34.347,20.757-50.936c1.933-4.271,6.954-6.165,11.236-4.232
			c4.271,1.933,6.165,6.964,4.232,11.236c-7.332,16.197-14.151,32.932-20.266,49.735
			C1734.714,2087.286,1731.461,2089.428,1727.992,2089.428z M1772.799,1990.492c-1.383,0-2.786-0.338-4.082-1.048
			c-4.109-2.258-5.608-7.422-3.353-11.531c8.795-16.001,18.323-31.854,28.328-47.119c2.57-3.923,7.837-5.018,11.753-2.447
			c3.923,2.57,5.018,7.833,2.447,11.753c-9.763,14.9-19.066,30.371-27.645,45.991
			C1778.703,1988.903,1775.797,1990.492,1772.799,1990.492z M1832.301,1899.72c-1.814,0-3.641-0.577-5.187-1.774
			c-3.711-2.869-4.391-8.201-1.522-11.909c11.143-14.41,23.012-28.58,35.279-42.124c3.147-3.469,8.51-3.738,11.992-0.59
			c3.472,3.147,3.741,8.516,0.59,11.992c-11.969,13.216-23.556,27.048-34.43,41.109
			C1837.352,1898.586,1834.838,1899.72,1832.301,1899.72z M1905.102,1819.295c-2.249,0-4.49-0.889-6.162-2.65
			c-3.223-3.399-3.081-8.775,0.322-12.002c13.156-12.476,27.022-24.677,41.202-36.264c3.638-2.968,8.984-2.424,11.949,1.204
			c2.965,3.631,2.424,8.981-1.204,11.949c-13.862,11.322-27.41,23.244-40.267,35.435
			C1909.3,1818.522,1907.201,1819.295,1905.102,1819.295z M1989.055,1750.627c-2.666,0-5.29-1.25-6.944-3.595
			c-2.703-3.834-1.787-9.13,2.043-11.833c14.711-10.377,30.136-20.495,45.845-30.069c3.996-2.441,9.226-1.181,11.667,2.832
			c2.441,4.003,1.174,9.226-2.832,11.667c-15.385,9.379-30.49,19.285-44.89,29.446
			C1992.454,1750.123,1990.746,1750.627,1989.055,1750.627z M2081.634,1694.143c-3.051,0-6.003-1.651-7.521-4.543
			c-2.182-4.149-0.587-9.282,3.565-11.465c15.918-8.37,32.477-16.452,49.208-24.02c4.271-1.933,9.299-0.036,11.232,4.235
			c1.933,4.271,0.036,9.299-4.235,11.232c-16.426,7.435-32.679,15.368-48.306,23.583
			C2084.317,1693.828,2082.968,1694.143,2081.634,1694.143z M2180.425,1649.355c-3.403,0-6.616-2.059-7.919-5.422
			c-1.695-4.374,0.474-9.292,4.845-10.987c16.708-6.477,34.032-12.688,51.49-18.459c4.451-1.473,9.253,0.948,10.725,5.399
			c1.469,4.451-0.945,9.253-5.399,10.725c-17.185,5.677-34.235,11.79-50.674,18.167
			C2182.481,1649.17,2181.443,1649.355,2180.425,1649.355z M2283.414,1615.25c-3.718,0-7.127-2.457-8.175-6.212
			c-1.26-4.517,1.379-9.2,5.896-10.46c17.268-4.819,35.087-9.369,52.962-13.527c4.563-1.074,9.127,1.778,10.191,6.344
			c1.064,4.567-1.778,9.13-6.344,10.191c-17.633,4.106-35.213,8.596-52.246,13.348
			C2284.936,1615.147,2284.167,1615.25,2283.414,1615.25z"/>
	</g>
</g>
</svg>
